<svg version="1.1" xmlns="http://www.w3.org/2000/svg" xmlns:xlink="http://www.w3.org/1999/xlink" x="0px" y="0px" viewBox="0 0 48 48" style="enable-background:new 0 0 48 48;" xml:space="preserve" >
<path style="fill:#934E3E;" d="M37,42H11c-1.657,0-3-1.343-3-3V18h32v21C40,40.657,38.657,42,37,42z"/>
<path style="fill:#934E3E;" d="M7.16,15.226L24,4l16.84,11.226C41.565,15.71,42,16.523,42,17.394v0C42,18.833,40.833,20,39.394,20&#10;&#9;H8.606C7.167,20,6,18.833,6,17.394v0C6,16.523,6.435,15.71,7.16,15.226z"/>
<path style="fill:#FFFDE7;" d="M28,40h-8c-1.105,0-2-0.895-2-2v-8c0-3.314,2.686-6,6-6h0c3.314,0,6,2.686,6,6v8&#10;&#9;C30,39.105,29.105,40,28,40z"/>
<path style="fill:#FF3D00;" d="M24,26L24,26c-2.209,0-4,1.791-4,4v8h8v-8C28,27.791,26.209,26,24,26z"/>
<circle style="fill:#8BC34A;" cx="24" cy="7" r="1"/>
<circle style="fill:#FFFDE7;" cx="27" cy="9" r="1"/>
<circle style="fill:#8BC34A;" cx="30" cy="11" r="1"/>
<circle style="fill:#FFFDE7;" cx="33" cy="13" r="1"/>
<circle style="fill:#8BC34A;" cx="36" cy="15" r="1"/>
<circle style="fill:#FFFDE7;" cx="39" cy="17" r="1"/>
<circle style="fill:#8BC34A;" cx="37" cy="23" r="1"/>
<circle style="fill:#FFFDE7;" cx="37" cy="27" r="1"/>
<circle style="fill:#8BC34A;" cx="37" cy="31" r="1"/>
<circle style="fill:#FFFDE7;" cx="37" cy="35" r="1"/>
<circle style="fill:#8BC34A;" cx="37" cy="39" r="1"/>
<circle style="fill:#FFFDE7;" cx="33" cy="39" r="1"/>
<circle style="fill:#FFFDE7;" cx="15" cy="39" r="1"/>
<circle style="fill:#8BC34A;" cx="11" cy="23" r="1"/>
<circle style="fill:#FFFDE7;" cx="11" cy="27" r="1"/>
<circle style="fill:#FFFDE7;" cx="12" cy="19" r="1"/>
<circle style="fill:#FFFDE7;" cx="36" cy="19" r="1"/>
<circle style="fill:#8BC34A;" cx="11" cy="31" r="1"/>
<circle style="fill:#FFFDE7;" cx="11" cy="35" r="1"/>
<circle style="fill:#8BC34A;" cx="11" cy="39" r="1"/>
<circle style="fill:#FFFDE7;" cx="21" cy="9" r="1"/>
<circle style="fill:#8BC34A;" cx="18" cy="11" r="1"/>
<circle style="fill:#FFFDE7;" cx="15" cy="13" r="1"/>
<circle style="fill:#8BC34A;" cx="12" cy="15" r="1"/>
<circle style="fill:#FFFDE7;" cx="9" cy="17" r="1"/>
<path style="fill:#FFFDE7;" d="M25,21h-2c-1.657,0-3-1.343-3-3v-2c0-1.657,1.343-3,3-3h2c1.657,0,3,1.343,3,3v2&#10;&#9;C28,19.657,26.657,21,25,21z"/>
<path style="fill:#FF3D00;" d="M25,19h-2c-0.552,0-1-0.448-1-1v-2c0-0.552,0.448-1,1-1h2c0.552,0,1,0.448,1,1v2&#10;&#9;C26,18.552,25.552,19,25,19z"/>
</svg>