<svg version="1.1" xmlns="http://www.w3.org/2000/svg" xmlns:xlink="http://www.w3.org/1999/xlink" x="0px" y="0px"  viewBox="0 0 48 48" enable-background="new 0 0 48 48" xml:space="preserve">
<path fill="#BA68C8" d="M17,42c3-23,17-26.99,17-26.99V12C9,14,5,34,5,34s3-3,6-4c-1,2-3,6-2,13c2-7,6-10,6-10C15,38,17,42,17,42z"/>
<path fill="#9C27B0" d="M31,15.01c0,0,1.425-0.445,3-0.99c0,0,0.147-1.235-1-1.02c-15.946,3.001-22,17-22,17c-1,2-3,6-2,13&#10;&#9;c2-7,6-10,6-10C17,21,31,15.01,31,15.01z"/>
<polygon fill="#FFCA28" points="34,4.429 37.001,9.999 43,10.857 38.714,15.143 39.571,21.571 34,18.571 28.429,21.571 &#10;&#9;29.286,15.143 25,10.857 30.999,9.999 "/>
<path fill="#7B1FA2" d="M26.639,19.867c0.787-0.785,1.556-1.447,2.285-2.012l0.362-2.713l-2.062-2.062&#10;&#9;c-0.763,0.188-1.496,0.397-2.209,0.62l2.157,2.156L26.639,19.867z"/>
</svg>