<?xml version="1.0" ?><svg id="Layer_1" style="enable-background:new 0 0 24 24;" version="1.1" viewBox="0 0 24 24" xml:space="preserve" xmlns="http://www.w3.org/2000/svg" xmlns:xlink="http://www.w3.org/1999/xlink"><title/><g id="Santa_Claus"><g><circle cx="19.997" cy="3" r="1.5" style="fill:#F8F8F8;"/><path d="M17.607,5.56C14.937,3.17,18.497,3,18.497,3l0.27-0.83c-1.913-1.084-4.071-1.659-6.27-1.67    c-3.62,0-6.56,3.91-7,5L17.607,5.56z" style="fill:#D51C29;"/><path d="M8.267,5.54c0.36-1,2.78-4.28,5.9-4.92    c-0.553-0.078-1.111-0.118-1.67-0.12c-3.62,0-6.56,3.91-7,5h12.07l0,0L8.267,5.54z" style="opacity:0.2;fill:#FFFFFF;enable-background:new    ;"/><path d="M5.937,5.5h11.12c0.877-0.018,1.664,0.537,1.94,1.37l0.11,0.32    c0.177,0.523-0.104,1.091-0.627,1.267c-0.104,0.035-0.213,0.053-0.323,0.053H4.887C4.335,8.511,3.886,8.065,3.884,7.513    c0-0.11,0.017-0.219,0.053-0.323l0.06-0.32C4.273,6.037,5.06,5.482,5.937,5.5z" style="fill:#F8F8F8;"/><path d="M20.497,12c0-2-2.5-3.5-2.5-3.5h-0.5c0.568,1.086,0.909,2.277,1,3.5    c0.098,1.283-0.863,2.402-2.147,2.5c-0.118,0.009-0.236,0.009-0.353,0c-1.44,0-2.25-1-4.5-1s-3.06,1-4.5,1    c-1.283,0.098-2.402-0.863-2.5-2.147c-0.009-0.118-0.009-0.236,0-0.353c0.091-1.223,0.432-2.414,1-3.5h-0.5c0,0-2.5,1.5-2.5,3.5    s1,2.5,1,2.5s-1,2,0,3c0.521,0.568,1.233,0.924,2,1c0,0,2,5.88,6,4c0,0.77-1,1-1,1c4.52,0,7-5,7-5c0.767-0.076,1.479-0.432,2-1    c1-1,0-3,0-3S20.497,14,20.497,12z" style="fill:#F8F8F8;"/><path d="M17.497,8.5c0.568,1.086,0.909,2.277,1,3.5c0.098,1.283-0.863,2.402-2.147,2.5    c-0.118,0.009-0.236,0.009-0.353,0c-1.44,0-2.25-1-4.5-1s-3.06,1-4.5,1c-1.283,0.098-2.402-0.863-2.5-2.147    c-0.009-0.118-0.009-0.236,0-0.353c0.091-1.223,0.432-2.414,1-3.5H17.497z" style="fill:#FBBE9D;"/><path d="M18.497,3l0.16-0.5c-1.93,0-4.16,0.14-4.16,2.5    c0.004,0.195,0.052,0.386,0.14,0.56h3C14.937,3.17,18.497,3,18.497,3z" style="opacity:0.1;enable-background:new    ;"/><path d="M6.497,12c0.091-1.223,0.432-2.414,1-3.5h-2    c-0.568,1.086-0.909,2.277-1,3.5c-0.098,1.283,0.863,2.402,2.147,2.5c0.118,0.009,0.236,0.009,0.353,0    c0.339-0.003,0.676-0.057,1-0.16C7.027,13.987,6.412,13.029,6.497,12z" style="opacity:0.2;fill:#FFFFFF;enable-background:new    ;"/><path d="M16.497,12c-0.091-1.223-0.432-2.414-1-3.5h2    c0.568,1.086,0.909,2.277,1,3.5c0.098,1.283-0.863,2.402-2.147,2.5c-0.118,0.009-0.236,0.009-0.353,0    c-0.339-0.003-0.676-0.057-1-0.16C15.967,13.987,16.582,13.029,16.497,12z" style="opacity:0.1;enable-background:new    ;"/><g><path d="M18.087,3.55c0.294,1.065,1.395,1.69,2.46,1.396c1.065-0.294,1.69-1.395,1.396-2.46     s-1.395-1.69-2.46-1.396c-0.308,0.085-0.592,0.243-0.826,0.46c-1.901-1-4.013-1.531-6.16-1.55c-3.65,0-6.61,3.62-7.32,5.12     c-0.76,0.243-1.358,0.834-1.61,1.59L3.457,7c-0.154,0.457-0.076,0.961,0.21,1.35c0.075,0.104,0.162,0.198,0.26,0.28     C2.825,9.42,2.12,10.65,1.997,12c-0.081,0.971,0.241,1.933,0.89,2.66c-0.27,0.71-0.69,2.25,0.26,3.19     c0.542,0.558,1.238,0.942,2,1.1c0.34,0.85,1.45,3.28,3.42,4.12c0.459,0.203,0.958,0.302,1.46,0.29     c-0.012,0.063-0.012,0.127,0,0.19c0.031,0.252,0.246,0.442,0.5,0.44c4.23,0,6.73-4,7.32-5c0.764-0.159,1.461-0.546,2-1.11     c0.94-0.94,0.52-2.48,0.26-3.19c0.657-0.734,0.98-1.709,0.89-2.69c-0.132-1.339-0.835-2.557-1.93-3.34     c0.098-0.082,0.185-0.176,0.26-0.28c0.296-0.396,0.375-0.914,0.21-1.38l-0.11-0.32c-0.25-0.717-0.813-1.28-1.53-1.53     c-0.66-0.6-0.83-1-0.78-1.16S17.627,3.64,18.087,3.55z M19.997,2c0.552,0,1,0.448,1,1s-0.448,1-1,1s-1-0.448-1-1     S19.445,2,19.997,2z M17.187,9c0.466,0.936,0.742,1.956,0.81,3c0.093,1.012-0.653,1.907-1.665,2c-0.112,0.01-0.224,0.01-0.335,0     c-0.536-0.026-1.063-0.155-1.55-0.38c-1.881-0.82-4.019-0.82-5.9,0C8.06,13.845,7.533,13.974,6.997,14     c-1.012,0.093-1.907-0.653-2-1.665c-0.01-0.112-0.01-0.224,0-0.335c0.069-1.044,0.345-2.063,0.81-3H17.187z M19.997,12     c0,1.63-0.7,2-0.72,2c-0.248,0.121-0.352,0.42-0.231,0.668c0,0.001,0.001,0.001,0.001,0.002c0.23,0.47,0.7,1.82,0.1,2.43     c-0.422,0.491-1.009,0.811-1.65,0.9c-0.188,0.003-0.357,0.112-0.44,0.28c0,0-1.85,3.63-5.06,4.52c0.011-0.1,0.011-0.2,0-0.3     c-0.002-0.276-0.228-0.498-0.504-0.496c-0.071,0.001-0.142,0.016-0.206,0.046c-0.724,0.386-1.583,0.427-2.34,0.11     c-1.95-0.83-2.95-3.79-2.95-3.82c-0.073-0.207-0.271-0.344-0.49-0.34c-0.638-0.074-1.227-0.376-1.66-0.85     c-0.6-0.6-0.14-2,0.1-2.43c0.106-0.244,0.011-0.529-0.22-0.66c0,0-0.73-0.43-0.73-2.06c0.132-1.029,0.691-1.954,1.54-2.55     c-0.325,0.813-0.508,1.675-0.54,2.55c-0.109,1.548,1.058,2.891,2.606,3c0.131,0.009,0.263,0.009,0.394,0     c0.66-0.024,1.309-0.177,1.91-0.45c1.652-0.734,3.538-0.734,5.19,0c0.598,0.272,1.243,0.425,1.9,0.45     c1.548,0.109,2.891-1.058,3-2.606c0.009-0.131,0.009-0.263,0-0.394c-0.032-0.875-0.215-1.737-0.54-2.55     C19.306,10.046,19.865,10.971,19.997,12z M18.477,7l0.11,0.32c0.088,0.262-0.052,0.545-0.314,0.634     c-0.05,0.017-0.103,0.026-0.156,0.026H4.887C4.611,7.978,4.389,7.752,4.391,7.476c0-0.053,0.009-0.106,0.026-0.156L4.517,7     c0.213-0.601,0.782-1.002,1.42-1h11.12C17.695,5.998,18.264,6.399,18.477,7z M16.177,3.63c-0.14,0.472-0.043,0.982,0.26,1.37     H6.397c0.93-1.43,3.34-4,6.1-4c1.951,0.017,3.871,0.486,5.61,1.37c0,0.06,0,0.11-0.05,0.17c-0.6,0.09-1.6,0.35-1.87,1.12     L16.177,3.63z" style="fill:#303C42;"/><path d="M13.087,15.21c-0.388,0.484-0.97,0.773-1.59,0.79c-0.621-0.013-1.205-0.302-1.59-0.79     c-0.18-0.21-0.495-0.234-0.705-0.055c-0.184,0.158-0.229,0.426-0.105,0.635c0.987,1.331,2.866,1.61,4.197,0.623     c0.237-0.176,0.447-0.386,0.623-0.623c0.16-0.226,0.106-0.54-0.12-0.7s-0.54-0.106-0.7,0.12H13.087z" style="fill:#303C42;"/><path d="M8.997,12c0.552,0,1-0.448,1-1s-0.448-1-1-1s-1,0.448-1,1S8.445,12,8.997,12z" style="fill:#303C42;"/><path d="M13.997,12c0.552,0,1-0.448,1-1s-0.448-1-1-1s-1,0.448-1,1S13.445,12,13.997,12z" style="fill:#303C42;"/></g><linearGradient gradientTransform="matrix(1 0 0 -1 0 24)" gradientUnits="userSpaceOnUse" id="SVGID_1_" x1="3.4522" x2="21.2203" y1="17.0826" y2="8.7988"><stop offset="0" style="stop-color:#FFFFFF;stop-opacity:0.2"/><stop offset="1" style="stop-color:#FFFFFF;stop-opacity:0"/></linearGradient><path d="M18.087,3.55c0.294,1.065,1.395,1.69,2.46,1.396c1.065-0.294,1.69-1.395,1.396-2.46    s-1.395-1.69-2.46-1.396c-0.308,0.085-0.592,0.243-0.826,0.46c-1.901-1-4.013-1.531-6.16-1.55c-3.65,0-6.61,3.62-7.32,5.12    c-0.76,0.243-1.358,0.834-1.61,1.59L3.457,7c-0.154,0.457-0.076,0.961,0.21,1.35c0.075,0.104,0.162,0.198,0.26,0.28    C2.825,9.42,2.12,10.65,1.997,12c-0.081,0.971,0.241,1.933,0.89,2.66c-0.27,0.71-0.69,2.25,0.26,3.19    c0.542,0.558,1.238,0.942,2,1.1c0.34,0.85,1.45,3.28,3.42,4.12c0.459,0.203,0.958,0.302,1.46,0.29    c-0.012,0.063-0.012,0.127,0,0.19c0.031,0.252,0.246,0.442,0.5,0.44c4.23,0,6.73-4,7.32-5c0.764-0.159,1.461-0.546,2-1.11    c0.94-0.94,0.52-2.48,0.26-3.19c0.657-0.734,0.98-1.709,0.89-2.69c-0.132-1.339-0.835-2.557-1.93-3.34    c0.098-0.082,0.185-0.176,0.26-0.28c0.296-0.396,0.375-0.914,0.21-1.38l-0.11-0.32c-0.25-0.717-0.813-1.28-1.53-1.53    c-0.66-0.6-0.83-1-0.78-1.16S17.627,3.64,18.087,3.55z" style="fill:url(#SVGID_1_);"/></g></g></svg>