<?xml version="1.0" ?><svg height="47px" version="1.1" viewBox="0 0 58 47" width="58px" xmlns="http://www.w3.org/2000/svg" xmlns:xlink="http://www.w3.org/1999/xlink"><title/><desc/><defs/><g fill="none" fill-rule="evenodd" id="Page-1" stroke="none" stroke-width="1"><g id="025---Mince-Pie" transform="translate(-1.000000, 0.000000)"><path d="M41.52,14.12 C43.88,13.48 46.14,15.86 46.26,15.99 L46.27,16 L46.26,15.99 C46.19,15.83 45.47,14.11 48.36,11.45 C51.4,8.65 55.06,11.22 55.06,11.22 C52.68,6.83 56.59,3.56 56.59,3.56 C56.59,3.56 51.72,5.07 49.34,0.67 C49.34,0.67 49.48,5.14 45.49,6.17 C41.5,7.2 40.54,5.45 40.54,5.45 L40.54,5.45 C40.6,5.68 41.48,9.42 39,10.84 L41.52,14.12 Z" fill="#639085" fill-rule="nonzero" id="Shape"/><path d="M21,10.84 C18.45,9.38 19.46,5.44 19.46,5.44 C19.46,5.44 18.5,7.2 14.51,6.17 C10.52,5.14 10.66,0.67 10.66,0.67 C8.28,5.07 3.41,3.56 3.41,3.56 C3.41,3.56 7.32,6.83 4.94,11.22 C4.94,11.22 8.6,8.65 11.64,11.45 C14.53,14.11 13.81,15.83 13.74,15.99 L13.73,16 L13.74,15.99 C13.86,15.86 16.12,13.48 18.48,14.12 L21,10.84 Z" fill="#639085" fill-rule="nonzero" id="Shape"/><circle cx="22.8" cy="14.7" fill="#943F51" fill-rule="nonzero" id="Oval" r="5"/><circle cx="37.45" cy="14.65" fill="#943F51" fill-rule="nonzero" id="Oval" r="4.65"/><circle cx="30" cy="12.87" fill="#E07585" fill-rule="nonzero" id="Oval" r="5"/><path d="M55.87,25.3 C55.7897926,25.3549075 55.7159978,25.4186393 55.65,25.49 L52.92,28.42 C52.5871008,28.78532 52.1128224,28.9893229 51.6186677,28.9797463 C51.124513,28.9701697 50.6584948,28.7479439 50.34,28.37 C49.278443,27.214278 47.7781643,26.5606278 46.2089269,26.5701499 C44.6396895,26.579672 43.1474536,27.2514806 42.1,28.42 C41.7650947,28.7854245 41.2892974,28.9892989 40.7937117,28.9797316 C40.2981261,28.9701644 39.830552,28.7480781 39.51,28.37 C38.4484542,27.2142581 36.9481712,26.5605936 35.3789267,26.5701157 C33.8096822,26.5796378 32.3174422,27.2514608 31.27,28.42 C30.935083,28.7854035 30.4592905,28.989263 29.9637124,28.9796958 C29.4681344,28.9701287 29.0005645,28.7480576 28.68,28.37 C27.6311645,27.2205491 26.1460476,26.5669524 24.59,26.57 C23.0073456,26.5722918 21.4996184,27.2444112 20.44,28.42 C20.107089,28.7852988 19.6328154,28.9892866 19.1386684,28.9797101 C18.6445214,28.9701336 18.1785074,28.7479232 17.86,28.37 C16.7984542,27.2142581 15.2981712,26.5605936 13.7289267,26.5701157 C12.1596822,26.5796378 10.6674422,27.2514608 9.62,28.42 C9.29001969,28.7694518 8.83062831,28.9674945 8.35,28.9674945 C7.86937169,28.9674945 7.40998031,28.7694518 7.08,28.42 L4.35,25.49 C4.28400218,25.4186393 4.21020741,25.3549075 4.13,25.3 C7.91,20.57 16.38,17.11 26.52,16.47 L33.48,16.47 C43.62,17.11 52.09,20.57 55.87,25.3 Z" fill="#F5A585" id="Shape"/><path d="M53.22,32.64 L47.52408,45.671 C47.2057452,46.3993124 46.4863434,46.8699946 45.6915,46.87 L15.23607,46.87 C14.4785245,46.8700027 13.7859957,46.4419988 13.44721,45.76443 L6.9,32.67 L7,30 L53,30 L53.22,32.64 Z" fill="#FCCC88" id="Shape"/><path d="M58.48,28.13 L55.75,31.07 C54.6973365,32.2170345 53.2118522,32.8699916 51.655,32.8699916 C50.0981478,32.8699916 48.6126635,32.2170345 47.56,31.07 C47.2394373,30.6919395 46.7718668,30.4698662 46.2762877,30.4602991 C45.7807085,30.4507319 45.3049153,30.6545935 44.97,31.02 C43.9225764,32.1885655 42.4303363,32.8604119 40.8610846,32.8699436 C39.291833,32.8794752 37.7915416,32.2258056 36.73,31.07005 C36.4094553,30.6919654 35.9418853,30.4698699 35.4462996,30.460293 C34.9507139,30.4507162 34.4749124,30.6545816 34.14,31.02 C33.0925693,32.188559 31.6003252,32.8603963 30.0310735,32.8699185 C28.4618219,32.8794406 26.9615346,32.2257619 25.9,31.07 C25.5814926,30.6920768 25.1154786,30.4698664 24.6213316,30.4602899 C24.1271846,30.4507134 23.652911,30.6547012 23.32,31.02 C22.2603756,32.1955805 20.7526522,32.8676981 19.17,32.87 C17.6143776,32.8710193 16.1300439,32.2177673 15.08,31.07 C14.759448,30.6919219 14.2918739,30.4698356 13.7962883,30.4602684 C13.3007026,30.4507011 12.8249053,30.6545755 12.49,31.02 C11.4425693,32.188559 9.95032516,32.8603963 8.38107353,32.8699185 C6.81182191,32.8794406 5.31153462,32.2257619 4.25,31.07 L1.52,28.13 C0.789853632,27.3479041 0.830104267,26.1224959 1.61,25.39 C2.3094803,24.7344717 3.38553802,24.6960411 4.13,25.3 C4.21020741,25.3549075 4.28400218,25.4186393 4.35,25.49 L7.08,28.42 C7.40998031,28.7694518 7.86937169,28.9674945 8.35,28.9674945 C8.83062831,28.9674945 9.29001969,28.7694518 9.62,28.42 C10.6674422,27.2514608 12.1596822,26.5796378 13.7289267,26.5701157 C15.2981712,26.5605936 16.7984542,27.2142581 17.86,28.37 C18.1785074,28.7479232 18.6445214,28.9701336 19.1386684,28.9797101 C19.6328154,28.9892866 20.107089,28.7852988 20.44,28.42 C21.4996184,27.2444112 23.0073456,26.5722918 24.59,26.57 C26.1460476,26.5669524 27.6311645,27.2205491 28.68,28.37 C29.0005645,28.7480576 29.4681344,28.9701287 29.9637124,28.9796958 C30.4592905,28.989263 30.935083,28.7854035 31.27,28.42 C32.3174422,27.2514608 33.8096822,26.5796378 35.3789267,26.5701157 C36.9481712,26.5605936 38.4484542,27.2142581 39.51,28.37 C39.830552,28.7480781 40.2981261,28.9701644 40.7937117,28.9797316 C41.2892974,28.9892989 41.7650947,28.7854245 42.1,28.42 C43.1474536,27.2514806 44.6396895,26.579672 46.2089269,26.5701499 C47.7781643,26.5606278 49.278443,27.214278 50.34,28.37 C50.6584948,28.7479439 51.124513,28.9701697 51.6186677,28.9797463 C52.1128224,28.9893229 52.5871008,28.78532 52.92,28.42 L55.65,25.49 C55.7159978,25.4186393 55.7897926,25.3549075 55.87,25.3 C56.614462,24.6960411 57.6905197,24.7344717 58.39,25.39 C59.1698957,26.1224959 59.2101464,27.3479041 58.48,28.13 Z" fill="#F58D6D" fill-rule="nonzero" id="Shape"/></g></g></svg>