<svg version="1.1" xmlns="http://www.w3.org/2000/svg" xmlns:xlink="http://www.w3.org/1999/xlink" x="0px" y="0px"  viewBox="0 0 48 48" enable-background="new 0 0 48 48" xml:space="preserve">
<path fill="#DD2C00" d="M24.126,29.367c1.583,1.585,1.458,5.027-0.127,6.611h-1c-2,2-4.498,0.713-6.082-0.869L8.189,24.904&#10;&#9;c-1.585-1.584-1.585-4.153-0.001-5.737l0,0c1.584-1.584,4.153-1.584,5.737,0.001L24.126,29.367z"/>
<path fill="#FF3D00" d="M27.688,2C21.056,2,16,7.369,16,14v13.928C16,29.52,17.408,37,19,37h16.852&#10;&#9;c5.762-3.842,3.842-22.994,3.842-22.994C39.693,7.375,34.316,2,27.688,2z"/>
<g>
	<rect x="18" y="37" fill="#CFD8DC" width="19" height="7"/>
	<circle fill="#CFD8DC" cx="21.5" cy="37.5" r="1.5"/>
	<circle fill="#CFD8DC" cx="18.5" cy="37.5" r="1.5"/>
	<circle fill="#CFD8DC" cx="24.5" cy="37.5" r="1.5"/>
	<circle fill="#CFD8DC" cx="27.5" cy="37.5" r="1.5"/>
	<circle fill="#CFD8DC" cx="30.5" cy="37.5" r="1.5"/>
	<circle fill="#CFD8DC" cx="21.5" cy="43.5" r="1.5"/>
	<circle fill="#CFD8DC" cx="24.5" cy="43.5" r="1.5"/>
	<circle fill="#CFD8DC" cx="27.5" cy="43.5" r="1.5"/>
	<circle fill="#CFD8DC" cx="30.5" cy="43.5" r="1.5"/>
	<circle fill="#CFD8DC" cx="33.5" cy="37.5" r="1.5"/>
	<circle fill="#CFD8DC" cx="33.5" cy="43.5" r="1.5"/>
	<circle fill="#CFD8DC" cx="36.5" cy="43.5" r="1.5"/>
	<circle fill="#CFD8DC" cx="36.5" cy="40.5" r="1.5"/>
	<circle fill="#CFD8DC" cx="36.5" cy="37.5" r="1.5"/>
	<circle fill="#CFD8DC" cx="18.5" cy="40.5" r="1.5"/>
	<circle fill="#CFD8DC" cx="18.5" cy="43.5" r="1.5"/>
</g>
<g>
	<line fill="none" stroke="#FFFFFF" stroke-width="2" x1="21.003" y1="24.928" x2="35.008" y2="17.189"/>
	<polyline fill="none" stroke="#FFFFFF" stroke-width="2" points="35.613,19.921 31.967,18.869 33.018,15.222 &#9;"/>
	<polyline fill="none" stroke="#FFFFFF" stroke-width="2" points="23.084,26.846 24.136,23.196 20.487,22.146 &#9;"/>
	<line fill="none" stroke="#FFFFFF" stroke-width="2" x1="28.005" y1="29" x2="28.005" y2="13"/>
	<polyline fill="none" stroke="#FFFFFF" stroke-width="2" points="30.689,13.849 28.005,16.532 25.32,13.849 &#9;"/>
	<polyline fill="none" stroke="#FFFFFF" stroke-width="2" points="30.689,28.164 28.005,25.479 25.32,28.164 &#9;"/>
	<line fill="none" stroke="#FFFFFF" stroke-width="2" x1="21.003" y1="17.139" x2="35.008" y2="24.877"/>
	<polyline fill="none" stroke="#FFFFFF" stroke-width="2" points="35.613,22.146 31.967,23.197 33.018,26.846 &#9;"/>
	<polyline fill="none" stroke="#FFFFFF" stroke-width="2" points="23.084,15.222 24.136,18.87 20.487,19.921 &#9;"/>
</g>
</svg>