<svg version="1.1" xmlns="http://www.w3.org/2000/svg" xmlns:xlink="http://www.w3.org/1999/xlink" x="0px" y="0px"  viewBox="0 0 48 48" enable-background="new 0 0 48 48" xml:space="preserve">
<path fill="#795548" d="M23.001,14.93v3.003c0,0.555,0.448,1.002,0.999,1.002c0.555,0,0.999-0.447,0.999-1.002V14.93&#10;&#9;c-0.319,0.083-0.65,0.14-0.999,0.14S23.322,15.013,23.001,14.93z"/>
<path fill="#FFB300" d="M28,11.096C28,8.859,24,3,24,3s-4,5.859-4,8.096c0,1.884,1.278,3.452,3.001,3.904v-1.883&#10;&#9;c0-0.558,0.447-1.011,0.999-1.011c0.555,0,0.999,0.453,0.999,1.011V15C26.723,14.548,28,12.979,28,11.096z"/>
<path fill="#FF9800" d="M22,13.069c0-1.104,0.897-1.998,2-1.998c1.104,0,2,0.894,2,1.998c0,1.107-0.896,2.002-2,2.002&#10;&#9;C22.897,15.071,22,14.177,22,13.069z"/>
<path fill="#E65100" d="M24,12.07c-0.551,0-0.999,0.447-0.999,0.999v1.86c0.321,0.083,0.65,0.141,0.999,0.141&#10;&#9;s0.68-0.058,0.999-0.141v-1.86C24.999,12.518,24.555,12.07,24,12.07z"/>
<path fill="#FFE082" d="M27.998,35.999C27.998,37.104,27.104,38,26,38h-4.004c-1.103,0-1.998-0.896-1.998-2.001l-0.034-17.074&#10;&#9;c0-1.104,0.896-1.998,1.998-1.998h4.004c1.104,0,1.998,0.894,1.998,1.998L27.998,35.999z"/>
<g>
	<path fill="#388E3C" d="M25.11,38.72L5,35c0,0,5.908,2.473,5,7c0,0,2.737-1.454,5-1c2.264,0.454,4,4,4,4S21.714,38.039,25.11,38.72&#10;&#9;&#9;z"/>
	<path fill="#388E3C" d="M29,45c0,0,1.735-3.546,4-4c2.263-0.454,5,1,5,1c-0.907-4.527,5-7,5-7l-20.11,3.72&#10;&#9;&#9;C26.286,38.039,29,45,29,45z"/>
</g>
<g>
	<path fill="#1B5E20" d="M25.11,38.72L5,35c0,0,6.092-1.473,7-6c0,0,2.31,3.391,4.559,3.903C19.576,33.591,22,30,22,30&#10;&#9;&#9;S21.714,38.039,25.11,38.72z"/>
	<path fill="#1B5E20" d="M26,30c0,0,2.424,3.591,5.441,2.903C33.69,32.391,36,29,36,29c0.908,4.527,7,6,7,6l-20.11,3.72&#10;&#9;&#9;C26.286,38.039,26,30,26,30z"/>
</g>
<g>
	<circle fill="#DD2C00" cx="26" cy="38" r="2"/>
	<circle fill="#DD2C00" cx="22" cy="38" r="2"/>
</g>
<circle fill="#FF3D00" cx="24" cy="35" r="2"/>
</svg>