<svg version="1.1" xmlns="http://www.w3.org/2000/svg" xmlns:xlink="http://www.w3.org/1999/xlink" x="0px" y="0px" viewBox="0 0 48 48" style="enable-background:new 0 0 48 48;" xml:space="preserve" >
<path style="fill:none;stroke:#455A64;stroke-width:2;stroke-linecap:round;stroke-linejoin:round;stroke-miterlimit:10;" d="&#10;&#9;M5,24.621l31.094,17.83c0,0,3.763,1.752,5.906-1.159"/>
<path style="fill:#FFB74D;" d="M38.5,4C40.433,4,42,5.566,42,7.5S40.433,11,38.5,11C36.567,11,35,9.434,35,7.5S36.567,4,38.5,4"/>
<path style="fill:#5EC08F;" d="M20.502,22c-0.367,0-0.74-0.059-1.108-0.18c-1.834-0.614-2.825-2.594-2.214-4.428&#10;&#9;C19.759,9.658,28.597,8.205,29,8.106c1.868-0.469,3.775,0.67,4.244,2.547L32,15c-1.717,0.443-7.052,1.227-8.179,4.605&#10;&#9;C23.332,21.072,21.967,22,20.502,22z"/>
<path style="fill:#5EC08F;" d="M23.998,34.082c-0.402,0-0.809-0.121-1.16-0.373c-0.899-0.642-1.107-1.892-0.466-2.791l3.885-4.517&#10;&#9;l-7.806-5.065L21,16l9.228,8.422c0.848,0.658,1.023,1.867,0.4,2.74l-5,6.08C25.237,33.789,24.622,34.082,23.998,34.082z"/>
<path style="fill:#FF754C;" d="M29,8.105c-0.275,0.068-4.478,0.77-7.94,3.666l6.292,4.576C29.14,15.574,31.084,15.237,32,15&#10;&#9;l1.244-4.348C32.775,8.775,30.868,7.637,29,8.105z"/>
<path style="fill:#1976D2;" d="M30,15.473V13l-1.58,2.936C28.965,15.75,29.501,15.598,30,15.473z"/>
<path style="fill:#E64A19;" d="M24.162,18.887c1.132-1.969,3.808-2.898,5.838-3.414V13c-4.697,1.012-6.736,3.184-7.522,4.348&#10;&#9;L24.162,18.887z"/>
<path style="fill:#338E5C;" d="M18.643,14.451l5.514,4.43c0.457-0.793,1.164-1.416,1.982-1.912l-6.105-4.248&#10;&#9;C19.532,13.236,19.069,13.818,18.643,14.451z"/>
<line style="fill:none;stroke:#B0BEC5;stroke-width:2;" x1="38" y1="24" x2="15" y2="8"/>
<polygon style="fill:#546E7A;" points="15.264,9.383 13.49,8.178 12.031,6 14.597,6.512 16.406,7.738 "/>
<path style="fill:#FF754C;" d="M37.499,24.842c-0.226,0-0.454-0.051-0.67-0.158l-6-3.842C30.321,20.588,30,20.068,30,19.5v-8&#10;&#9;c0-0.828,0-3.5,0-3.5c3,0,4,1,4,3l-1,7.574L38.171,22c0.741,0.371,1.041,1.271,0.671,2.012&#10;&#9;C38.579,24.539,38.049,24.842,37.499,24.842z"/>
<path style="fill:#78909C;" d="M12.031,10.344c0,0,2.797,0.082,4.016-1.639c1.219-1.721,0-4.393,0-4.393"/>
</svg>