<svg version="1.1" xmlns="http://www.w3.org/2000/svg" xmlns:xlink="http://www.w3.org/1999/xlink" x="0px" y="0px"  viewBox="0 0 48 48" enable-background="new 0 0 48 48" xml:space="preserve">
<circle fill="#BBDEFB" cx="24" cy="27" r="16"/>
<path fill="#FF9800" d="M21,30.999c0-1.656,1.344-3,3-3s11,3,11,3s-9.344,3-11,3S21,32.655,21,30.999z"/>
<g>
	<path fill="#5D4037" d="M21.837,39.969c-0.82-0.14-1.37-0.91-1.22-1.729l0,0c0.14-0.82,0.92-1.36,1.739-1.221h-0.01&#10;&#9;&#9;c0.82,0.141,1.37,0.92,1.22,1.73l0,0c-0.119,0.729-0.76,1.25-1.47,1.25l0,0C22.007,39.999,21.927,39.989,21.837,39.969z&#10;&#9;&#9; M24.437,38.749c-0.149-0.811,0.4-1.59,1.21-1.73l0,0c0.82-0.149,1.6,0.4,1.74,1.21l0,0c0.15,0.82-0.4,1.601-1.211,1.74l0,0&#10;&#9;&#9;c-0.09,0.021-0.18,0.021-0.27,0.021l0,0C25.198,39.989,24.558,39.479,24.437,38.749z M17.757,38.489&#10;&#9;&#9;c-0.72-0.41-0.97-1.33-0.55-2.051l0,0c0.41-0.72,1.33-0.96,2.05-0.55l0,0c0.72,0.42,0.96,1.33,0.55,2.061l0,0&#10;&#9;&#9;c-0.279,0.479-0.79,0.739-1.31,0.739l0,0C18.248,38.688,17.988,38.629,17.757,38.489z M28.198,37.938&#10;&#9;&#9;c-0.41-0.72-0.17-1.63,0.549-2.05l0,0c0.721-0.42,1.641-0.17,2.051,0.55l0,0c0.42,0.721,0.17,1.631-0.541,2.051l0,0&#10;&#9;&#9;c-0.24,0.13-0.5,0.199-0.76,0.199l0,0C28.987,38.688,28.478,38.419,28.198,37.938z M14.427,35.709c-0.53-0.64-0.45-1.58,0.18-2.12&#10;&#9;&#9;l0,0c0.641-0.53,1.58-0.45,2.12,0.19l0,0c0.53,0.63,0.45,1.569-0.18,2.109l0,0c-0.29,0.23-0.63,0.351-0.97,0.351l0,0&#10;&#9;&#9;C15.147,36.239,14.727,36.059,14.427,35.709z M31.458,35.879c-0.631-0.53-0.711-1.48-0.18-2.11l0,0&#10;&#9;&#9;c0.529-0.64,1.479-0.72,2.109-0.189l0,0c0.629,0.54,0.719,1.479,0.189,2.12l0,0c-0.299,0.35-0.721,0.529-1.15,0.529l0,0&#10;&#9;&#9;C32.087,36.229,31.737,36.119,31.458,35.879z"/>
</g>
<g>
	<circle fill="#212121" cx="18" cy="25.999" r="2"/>
	<circle fill="#212121" cx="30" cy="25.999" r="2"/>
</g>
<path fill="#795548" d="M12,7l1,9c0,1.656,4.925,3,11,3c6.076,0,11-1.344,11-3l1-9H12z"/>
<path fill="#FF1744" d="M24,15c-7,0-10.102-1.91-11.462-3.156L13,16c0,1.656,4.925,3,11,3c6.076,0,11-1.344,11-3l0.462-4.156&#10;&#9;C34.102,13.09,32,15,24,15z"/>
<g>
	<path fill="#4E342E" d="M35.383,12.553L35,16c0,1.656-4.924,3-11,3c-6.075,0-11-1.344-11-3l-0.383-3.447&#10;&#9;&#9;C9.175,13.651,7,15.234,7,17c0,3.313,7.61,6,17,6s17-2.687,17-6C41,15.234,38.824,13.651,35.383,12.553z"/>
	<ellipse fill="#4E342E" cx="24" cy="7" rx="12" ry="4"/>
</g>
</svg>