<?xml version="1.0" encoding="UTF-8" standalone="no"?> <svg xmlns="http://www.w3.org/2000/svg" width="71.25" height="71.247" viewBox="0 0 71.25 71.247">
  <path id="Snowflake" d="M1185.85-903.744v-34.374m0,7.937,3.77-5.909m-3.77,5.909-3.77-5.909m3.77,9.461,7.04-3.552m-7.04,3.552-7.04-3.552m7.04,14.189,5.62-5.619m-5.62,5.619-5.62-5.619m5.62,17.867v34.373m0-7.936,3.77,5.908m-3.77-5.908-3.77,5.908m3.77-9.46,7.04,3.552m-7.04-3.552-7.04,3.552m7.04-14.189,5.62,5.619m-5.62-5.619-5.62,5.619m5.62-17.867h-34.37m7.94,0-5.91,3.769m5.91-3.769-5.91-3.77m9.46,3.77-3.55,7.04m3.55-7.04-3.55-7.041m14.19,7.041-5.62,5.619m5.62-5.619-5.62-5.619m17.86,5.619h34.38m-7.94,0,5.91,3.769m-5.91-3.769,5.91-3.77m-9.46,3.77,3.55,7.04m-3.55-7.04,3.55-7.041m-14.19,7.041,5.62,5.619m-5.62-5.619,5.62-5.619m-17.87,5.619,24.31-24.309m-6.74,6.743,9.01-1.478m-9.01,1.478,1.48-9.011m-19.05,26.577,24.31,24.308m-6.74-6.743,9.01,1.478m-9.01-1.478,1.48,9.011m-19.05-26.576-24.3,24.308m6.74-6.743-9.01,1.478m9.01-1.478-1.48,9.011m19.04-26.576-24.3-24.309m6.74,6.743-9.01-1.478m9.01,1.478-1.48-9.011" transform="translate(-1150.23 939.368)" fill="none" stroke="#ff5e5e" stroke-linecap="round" stroke-linejoin="round" stroke-width="2.5"/>
</svg>
