<svg version="1.1" xmlns="http://www.w3.org/2000/svg" xmlns:xlink="http://www.w3.org/1999/xlink" x="0px" y="0px"  viewBox="0 0 48 48" enable-background="new 0 0 48 48" xml:space="preserve">
<g>
	<path fill="#388E3C" d="M23,9.613L45,16c0,0-6.513-3.99-4.986-9c0,0-2.955,1.418-5.461,0.655C32.046,6.89,31.014,3,31.014,3&#10;&#9;&#9;S26.76,10.758,23,9.613z"/>
	<path fill="#388E3C" d="M25,9.613L3,16c0,0,6.513-3.99,4.986-9c0,0,2.955,1.418,5.461,0.655C15.954,6.89,16.986,3,16.986,3&#10;&#9;&#9;S21.24,10.758,25,9.613z"/>
</g>
<g>
	<path fill="#1B5E20" d="M23,9.613L45,16c0,0-7.459,0.988-8.986,6c0,0-2.009-3.556-4.513-4.319C28.994,16.917,26.014,19,26.014,19&#10;&#9;&#9;S26.76,10.758,23,9.613z"/>
	<path fill="#1B5E20" d="M25,9.613L3,16c0,0,7.459,0.988,8.986,6c0,0,2.009-3.556,4.513-4.319C19.006,16.917,21.986,19,21.986,19&#10;&#9;&#9;S21.24,10.758,25,9.613z"/>
</g>
<circle fill="#DB8509" cx="24" cy="40" r="4"/>
<path fill="#BC6F0A" d="M27.887,40.909C27.955,40.616,28,40.313,28,40c0-0.383-0.07-0.746-0.172-1.097&#10;&#9;c-1.219,0.061-2.495,0.096-3.828,0.096s-2.609-0.035-3.828-0.096C20.07,39.254,20,39.617,20,40c0,0.313,0.045,0.616,0.113,0.909&#10;&#9;c1.471,0.069,2.813,0.09,3.887,0.09S26.416,40.979,27.887,40.909z"/>
<g>
	<path fill="#FFC107" d="M33,35.199V19c0-4.97-4.029-9-9-9s-9,4.03-9,9v16.199H33z"/>
	<path fill="#FFC107" d="M41,34.999c0,2.209-7.059,4-17,4s-17-1.791-17-4s7.059-4,17-4S41,32.79,41,34.999z"/>
	<path fill="#FFC107" d="M7,34.999c0-1.999,8-9.001,8-12s18-3.001,18,0s8,9.999,8,12S7,36.998,7,34.999z"/>
</g>
<path fill="#FFE082" d="M9.275,31.423c-0.49,0.593-0.93,1.146-1.295,1.65c1.621,0.655,8.149,3.062,16.561,3.062&#10;&#9;c4.746,0,10.09-0.78,15.477-3.064c-0.362-0.499-0.796-1.046-1.281-1.632C25.699,36.723,12.698,32.679,9.275,31.423z"/>
<g>
	<circle fill="#DD2C00" cx="22" cy="10" r="2"/>
	<circle fill="#DD2C00" cx="26" cy="10" r="2"/>
</g>
<circle fill="#FF3D00" cx="24" cy="13" r="2"/>
</svg>