<svg version="1.1" xmlns="http://www.w3.org/2000/svg" xmlns:xlink="http://www.w3.org/1999/xlink" x="0px" y="0px"  viewBox="0 0 48 48" enable-background="new 0 0 48 48" xml:space="preserve">
<g>
	<rect x="9" y="24" fill="#2196F3" width="2" height="9"/>
	<rect x="9" y="24" transform="matrix(0.5069 -0.862 0.862 0.5069 -19.6359 22.6722)" fill="#2196F3" width="2" height="9"/>
	<rect x="9" y="24" transform="matrix(-0.4895 -0.872 0.872 -0.4895 -9.9572 51.1707)" fill="#2196F3" width="1.999" height="9"/>
	<rect x="20" y="33" fill="#2196F3" width="2" height="9"/>
	<rect x="20" y="33" transform="matrix(0.5069 -0.862 0.862 0.5069 -21.97 36.5916)" fill="#2196F3" width="2" height="9"/>
	<rect x="20" y="33" transform="matrix(-0.4895 -0.872 0.872 -0.4895 -1.4208 74.1682)" fill="#2196F3" width="1.999" height="9"/>
	<rect x="17" y="12" fill="#2196F3" width="2" height="9"/>
	<rect x="17" y="12" transform="matrix(0.5069 -0.862 0.862 0.5069 -5.3476 23.6513)" fill="#2196F3" width="2" height="9"/>
	<rect x="17" y="12" transform="matrix(-0.4895 -0.872 0.872 -0.4895 12.4228 40.2728)" fill="#2196F3" width="1.999" height="9"/>
	<rect x="33.457" y="29" fill="#2196F3" width="2" height="7"/>
	
		<rect x="33.457" y="29" transform="matrix(0.4885 0.8726 -0.8726 0.4885 45.9834 -13.4426)" fill="#2196F3" width="2.001" height="7"/>
	
		<rect x="33.458" y="29.001" transform="matrix(0.5079 -0.8614 0.8614 0.5079 -11.0395 45.6771)" fill="#2196F3" width="2" height="7"/>
	<rect x="34" y="6" fill="#2196F3" width="3" height="14"/>
	
		<rect x="33.999" y="6.001" transform="matrix(0.5475 0.8368 -0.8368 0.5475 26.9405 -23.8234)" fill="#2196F3" width="3.002" height="14"/>
	<rect x="34" y="5.999" transform="matrix(0.5514 -0.8342 0.8342 0.5514 5.0808 35.4475)" fill="#2196F3" width="3" height="14"/>
</g>
</svg>