<?xml version="1.0" encoding="UTF-8" standalone="no"?> <svg xmlns="http://www.w3.org/2000/svg" width="71.544" height="77.451" viewBox="0 0 71.544 77.451">
  <g id="Snowman" transform="translate(-233.88 -563.176)">
    <path id="Path_8" data-name="Path 8" d="M265.615-624.9a1.646,1.646,0,0,1,1.646,1.645,1.646,1.646,0,0,1-1.646,1.646,1.646,1.646,0,0,1-1.645-1.646A1.646,1.646,0,0,1,265.615-624.9Z" transform="translate(0 1200)" fill="#ff5e5e" fill-rule="evenodd"/>
    <path id="Path_9" data-name="Path 9" d="M275.781-624.9a1.646,1.646,0,0,1,1.645,1.645,1.646,1.646,0,0,1-1.645,1.646,1.646,1.646,0,0,1-1.645-1.646A1.646,1.646,0,0,1,275.781-624.9Z" transform="translate(0 1200)" fill="#ff5e5e" fill-rule="evenodd"/>
    <path id="Path_10" data-name="Path 10" d="M238.048-561.114h63.42m-46.153,0a25.184,25.184,0,0,1-10.763-20.655,25.231,25.231,0,0,1,16.276-23.576,16.425,16.425,0,0,1-7.5-13.8,16.442,16.442,0,0,1,16.434-16.434,16.442,16.442,0,0,1,16.434,16.434,16.425,16.425,0,0,1-7.5,13.8,25.229,25.229,0,0,1,16.276,23.576A25.184,25.184,0,0,1,284.2-561.114m-13.638-58.753s7.116.706,8.326,1.07-7.358,2.44-8.326,2.172S270.563-619.867,270.563-619.867Zm-18.128,34.02L239.469-595.1H235.13m4.339,0v-4.769m54.045,9.658,6.32-4.51h4.34m-4.34,0v-4.768" transform="translate(0 1200)" fill="none" stroke="#ff5e5e" stroke-linecap="round" stroke-linejoin="round" stroke-width="2.5"/>
    <path id="Path_5" data-name="Path 5" d="M272.531-575.384a2.4,2.4,0,0,1,2.4,2.4,2.4,2.4,0,0,1-2.4,2.4,2.4,2.4,0,0,1-2.4-2.4A2.4,2.4,0,0,1,272.531-575.384Z" transform="translate(0 1200)" fill="#ff5e5e" fill-rule="evenodd"/>
    <path id="Path_6" data-name="Path 6" d="M274.136-587.565a2.4,2.4,0,0,1,2.4,2.4,2.4,2.4,0,0,1-2.4,2.4,2.4,2.4,0,0,1-2.4-2.4A2.4,2.4,0,0,1,274.136-587.565Z" transform="translate(0 1200)" fill="#ff5e5e" fill-rule="evenodd"/>
    <path id="Path_7" data-name="Path 7" d="M272.531-599.367a2.4,2.4,0,0,1,2.4,2.4,2.4,2.4,0,0,1-2.4,2.4,2.4,2.4,0,0,1-2.4-2.4A2.4,2.4,0,0,1,272.531-599.367Z" transform="translate(0 1200)" fill="#ff5e5e" fill-rule="evenodd"/>
  </g>
</svg>
