<svg version="1.1" xmlns="http://www.w3.org/2000/svg" xmlns:xlink="http://www.w3.org/1999/xlink" x="0px" y="0px"  viewBox="0 0 48 48" enable-background="new 0 0 48 48" xml:space="preserve">
<path fill="#3F51B5" d="M38,4.002L14,4c-2.207,0-4.816,1.068-4.984,6.002H9c0,0,0,20.822,0,28.998l0.018-0.054&#10;&#9;C9.2,42.585,11.565,43,12.607,43c0,0,23.893,0,24.393,0c2,0,2-2,2-2V5.002C39,4.449,38.553,4.002,38,4.002z"/>
<g>
	<rect x="22" y="9" fill="#283593" width="6" height="22"/>
	<rect x="17" y="14" fill="#283593" width="16" height="6"/>
</g>
<g>
	<rect x="24" y="10.999" fill="#FDD835" width="2" height="18"/>
	<rect x="19" y="15.999" fill="#FDD835" width="12" height="2"/>
</g>
<path fill="#FFE0B2" d="M36,36H12.607C11.275,36,11,37.119,11,38.5c0,1.382,0.275,2.502,1.607,2.502L36,41V36z"/>
<path fill="#1A237E" d="M38,36h-2v5c0,0,1,0,2,0s1-1,1-1v-4.998C39,35.553,38.553,36,38,36z"/>
<path fill="#E0B990" d="M11.014,38H36v-2H12.607C11.44,36,11.085,36.858,11.014,38z"/>
</svg>