<?xml version="1.0" ?><svg id="Layer_1" style="enable-background:new 0 0 24 24;" version="1.1" viewBox="0 0 24 24" xml:space="preserve" xmlns="http://www.w3.org/2000/svg" xmlns:xlink="http://www.w3.org/1999/xlink"><title/><g id="Santa_Claus"><g><circle cx="20" cy="3" r="1.5" style="fill:none;stroke:#303C42;stroke-linecap:round;stroke-linejoin:round;"/><path d="M18.77,2.17    c-1.913-1.084-4.071-1.659-6.27-1.67c-3.62,0-6.56,3.91-7,5" style="fill:none;stroke:#303C42;stroke-linecap:round;stroke-linejoin:round;"/><path d="M18.5,3c0,0-3.56,0.17-0.89,2.56" style="fill:none;stroke:#303C42;stroke-linecap:round;stroke-linejoin:round;"/><path d="M5.94,5.5h11.12    c0.877-0.018,1.664,0.537,1.94,1.37l0.11,0.32c0.177,0.523-0.104,1.091-0.627,1.267C18.379,8.493,18.27,8.51,18.16,8.51H4.89    C4.338,8.511,3.889,8.065,3.887,7.513c0-0.11,0.017-0.219,0.053-0.323L4,6.87C4.276,6.037,5.063,5.482,5.94,5.5z" style="fill:none;stroke:#303C42;stroke-linecap:round;stroke-linejoin:round;"/><path d="M5,8.5c0,0-2.5,1.5-2.5,3.5s1,2.5,1,2.5    s-1,2,0,3c0.521,0.568,1.233,0.924,2,1c0,0,2,5.88,6,4c0,0.77-1,1-1,1c4.52,0,7-5,7-5c0.767-0.076,1.479-0.432,2-1c1-1,0-3,0-3    s1-0.48,1-2.5S18,8.5,18,8.5" style="fill:none;stroke:#303C42;stroke-linecap:round;stroke-linejoin:round;"/><path d="M17.5,8.5c0.568,1.086,0.909,2.277,1,3.5    c0.098,1.283-0.863,2.402-2.147,2.5c-0.118,0.009-0.236,0.009-0.353,0c-1.44,0-2.25-1-4.5-1s-3.06,1-4.5,1    c-1.283,0.098-2.402-0.863-2.5-2.147c-0.009-0.118-0.009-0.236,0-0.353c0.091-1.223,0.432-2.414,1-3.5" style="fill:none;stroke:#303C42;stroke-linecap:round;stroke-linejoin:round;"/><path d="M9.5,15.5    c0.828,1.105,2.395,1.328,3.5,0.5c0.19-0.142,0.358-0.31,0.5-0.5" style="fill:none;stroke:#303C42;stroke-linecap:round;stroke-linejoin:round;"/><circle cx="9" cy="11" r="0.5" style="fill:none;stroke:#303C42;stroke-linecap:round;stroke-linejoin:round;"/><circle cx="14" cy="11" r="0.5" style="fill:none;stroke:#303C42;stroke-linecap:round;stroke-linejoin:round;"/></g></g></svg>