<?xml version="1.0"?>
<svg xmlns="http://www.w3.org/2000/svg" xmlns:xlink="http://www.w3.org/1999/xlink" xmlns:svgjs="http://svgjs.com/svgjs" version="1.1" width="512" height="512" x="0" y="0" viewBox="0 0 74 74" style="enable-background:new 0 0 512 512" xml:space="preserve"><g><path xmlns="http://www.w3.org/2000/svg" d="m49.731 16.36a1 1 0 0 1 -.863-.493 23.736 23.736 0 0 0 -1.6-2.37 1 1 0 1 1 1.59-1.213 25.77 25.77 0 0 1 1.737 2.569 1 1 0 0 1 -.861 1.507z" fill="#ffffff" data-original="#000000" style=""/><path xmlns="http://www.w3.org/2000/svg" d="m28.1 54.2a26.094 26.094 0 1 1 5.532-51.6 1 1 0 1 1 -.424 1.954 24.089 24.089 0 1 0 7.258 44.215 24.4 24.4 0 0 0 4.667-3.649 24.816 24.816 0 0 0 3.652-4.662 23.935 23.935 0 0 0 2.781-17.775 1 1 0 1 1 1.948-.452 25.93 25.93 0 0 1 -3.014 19.263 26.78 26.78 0 0 1 -3.951 5.043 26.333 26.333 0 0 1 -5.052 3.95 26.031 26.031 0 0 1 -13.397 3.713z" fill="#ffffff" data-original="#000000" style=""/><path xmlns="http://www.w3.org/2000/svg" d="m43.079 8.97a.992.992 0 0 1 -.6-.2 22.746 22.746 0 0 0 -2.4-1.581 1 1 0 1 1 .99-1.737 24.64 24.64 0 0 1 2.617 1.72 1 1 0 0 1 -.6 1.8z" fill="#ffffff" data-original="#000000" style=""/><path xmlns="http://www.w3.org/2000/svg" d="m64.882 72a7.13 7.13 0 0 1 -5.039-2.093l-19.577-19.577a1 1 0 0 1 1.414-1.414l19.577 19.577a5.12 5.12 0 0 0 7.24-7.241l-19.577-19.576a1 1 0 0 1 1.414-1.414l19.577 19.576a7.128 7.128 0 0 1 -5.029 12.162z" fill="#ffffff" data-original="#000000" style=""/><path xmlns="http://www.w3.org/2000/svg" d="m36.012 34.754a1 1 0 0 1 -.649-1.762l5.761-4.9-5.761-4.9a1 1 0 0 1 1.3-1.523l6.655 5.663a1 1 0 0 1 0 1.524l-6.655 5.663a1 1 0 0 1 -.651.235z" fill="#ffffff" data-original="#000000" style=""/><path xmlns="http://www.w3.org/2000/svg" d="m20.178 34.754a1 1 0 0 1 -.647-.238l-6.656-5.663a1 1 0 0 1 0-1.524l6.656-5.663a1 1 0 0 1 1.3 1.523l-5.761 4.9 5.761 4.9a1 1 0 0 1 -.649 1.762z" fill="#ffffff" data-original="#000000" style=""/><path xmlns="http://www.w3.org/2000/svg" d="m23.473 41.55a1.012 1.012 0 0 1 -.348-.063 1 1 0 0 1 -.589-1.285l9.243-24.918a1 1 0 0 1 1.875.695l-9.243 24.921a1 1 0 0 1 -.938.65z" fill="#ffffff" data-original="#000000" style=""/></g></svg>
