<?xml version="1.0" ?><!DOCTYPE svg  PUBLIC '-//W3C//DTD SVG 1.1//EN'  'http://www.w3.org/Graphics/SVG/1.1/DTD/svg11.dtd'><svg height="100%" style="fill-rule:evenodd;clip-rule:evenodd;stroke-linejoin:round;stroke-miterlimit:1.41421;" version="1.1" viewBox="0 0 100 100" width="100%" xml:space="preserve" xmlns="http://www.w3.org/2000/svg" xmlns:xlink="http://www.w3.org/1999/xlink"><path d="M71.175,16.025c-0.063,1.811 -0.566,3.495 -1.379,5.096c-0.616,1.211 -1.375,2.332 -2.242,3.373c-1.015,1.218 -2.07,2.403 -3.108,3.602c-0.672,0.775 -1.36,1.537 -2.013,2.329c-1.522,1.846 -2.768,3.864 -3.679,6.082c-0.105,0.256 -0.242,0.499 -0.385,0.737c-0.081,0.134 -0.234,0.129 -0.373,0.097c-0.16,-0.037 -0.223,-0.173 -0.246,-0.307c-0.023,-0.134 -0.017,-0.279 0.012,-0.412c0.398,-1.884 1.079,-3.662 1.99,-5.357c0.977,-1.818 2.209,-3.455 3.571,-4.998c0.555,-0.629 1.142,-1.231 1.711,-1.848c0.632,-0.686 1.287,-1.353 1.885,-2.068c0.566,-0.679 1.107,-1.386 1.594,-2.123c0.967,-1.462 1.55,-3.074 1.738,-4.823c0.02,-0.184 0.072,-0.364 0.116,-0.544c0.035,-0.14 0.302,-0.271 0.458,-0.234c0.158,0.038 0.246,0.154 0.262,0.287c0.045,0.368 0.061,0.741 0.088,1.111" style="fill:#1e1c1a;fill-rule:nonzero;"/><path d="M54.769,11.3c-0.065,1.175 -0.283,2.317 -0.68,3.419c-0.269,0.743 -0.581,1.472 -0.871,2.208c-0.342,0.866 -0.688,1.73 -1.02,2.601c-0.491,1.29 -0.586,2.63 -0.465,3.991c0.071,0.793 0.285,1.556 0.523,2.312c0.112,0.355 0.235,0.707 0.324,1.067c0.031,0.125 -0.014,0.273 -0.04,0.408c-0.031,0.163 -0.323,0.265 -0.46,0.161c-0.108,-0.083 -0.241,-0.16 -0.303,-0.273c-1.482,-2.69 -1.978,-5.503 -0.997,-8.478c0.233,-0.705 0.536,-1.39 0.839,-2.069c0.322,-0.723 0.688,-1.426 1.025,-2.142c0.559,-1.186 1,-2.407 1.114,-3.729c0.019,-0.224 0.117,-0.446 0.206,-0.658c0.029,-0.07 0.144,-0.151 0.215,-0.147c0.127,0.008 0.28,0.045 0.367,0.128c0.093,0.087 0.154,0.238 0.172,0.369c0.037,0.275 0.037,0.556 0.051,0.832" style="fill:#1e1c1a;fill-rule:nonzero;"/><path d="M62.813,81.254c-0.018,-0.809 -0.071,-1.554 -0.043,-2.295c0.059,-1.538 0.15,-3.074 0.25,-4.609c0.084,-1.302 0.198,-2.603 0.299,-3.904c0.079,-1.028 0.03,-2.054 -0.114,-3.07c-0.078,-0.549 -0.218,-1.099 -0.406,-1.621c-0.255,-0.708 -0.654,-1.339 -1.247,-1.827c-0.142,-0.118 -0.357,-0.136 -0.512,-0.025c-0.722,0.512 -1.442,1.028 -2.166,1.537c-0.162,0.114 -0.262,0.256 -0.3,0.48c0.631,1.279 1.062,2.655 1.369,4.071c0.346,1.594 0.689,3.188 1.015,4.786c0.334,1.644 0.662,3.289 1.125,4.903c0.129,0.446 0.284,0.885 0.448,1.319c0.034,0.092 0.161,0.15 0.282,0.255M55.958,73.379c-0.009,0 -0.018,-0.001 -0.026,-0.001c0,-0.514 -0.002,-1.027 0,-1.54c0.004,-0.754 -0.137,-1.488 -0.319,-2.212c-0.16,-0.633 -0.376,-1.251 -0.744,-1.802c-0.108,-0.164 -0.303,-0.271 -0.471,-0.228c-1.084,0.275 -2.168,0.551 -3.25,0.831c-0.186,0.047 -0.295,0.258 -0.223,0.438c0.778,1.959 1.238,4.006 1.723,6.049c0.464,1.951 0.924,3.904 1.583,5.803c0.321,0.925 0.638,1.852 1.109,2.716c0.054,0.099 0.116,0.148 0.225,0.104c0.031,-0.013 0.066,-0.061 0.068,-0.095c0.011,-0.185 0.028,-0.371 0.017,-0.555c-0.144,-2.382 -0.076,-4.758 0.164,-7.132c0.08,-0.789 0.098,-1.584 0.144,-2.376M48.488,71.127c-0.052,-0.65 -0.102,-1.301 -0.159,-1.95c-0.016,-0.183 -0.192,-0.374 -0.35,-0.374c-0.791,-0.002 -1.581,0.003 -2.372,0.008c-0.099,0.001 -0.283,0.175 -0.285,0.264c-0.007,0.233 0,0.466 -0.014,0.698c-0.04,0.651 -0.03,1.312 -0.145,1.95c-0.182,1.007 -0.417,2.008 -0.69,2.996c-0.31,1.122 -0.681,2.228 -1.033,3.338c-0.521,1.645 -1.018,3.296 -1.384,4.983c-0.307,1.418 -0.514,2.844 -0.432,4.301c0.067,1.187 0.358,2.301 1.041,3.29c0.076,0.11 0.187,0.198 0.29,0.286c0.025,0.022 0.098,0.023 0.124,0.002c0.087,-0.069 0.067,-0.152 0.035,-0.255c-0.605,-1.902 -0.375,-3.778 0.194,-5.64c0.274,-0.893 0.627,-1.756 1.06,-2.584c0.518,-0.992 1.06,-1.972 1.562,-2.971c0.502,-0.999 1.01,-1.999 1.441,-3.029c0.708,-1.693 1.088,-3.466 1.117,-5.313M35.241,40.963c0.169,-0.079 0.301,-0.124 0.415,-0.197c1.103,-0.701 2.253,-1.309 3.467,-1.794c0.128,-0.051 0.254,-0.124 0.359,-0.212c0.064,-0.053 0.113,-0.153 0.123,-0.237c0.017,-0.136 0.013,-0.281 -0.011,-0.416c-0.247,-1.399 -0.779,-2.679 -1.644,-3.809c-0.367,-0.479 -0.743,-0.96 -1.17,-1.385c-1.451,-1.446 -2.925,-2.869 -4.394,-4.296c-0.061,-0.058 -0.164,-0.074 -0.248,-0.107c-0.074,-0.029 -0.232,0.175 -0.226,0.311c0.08,1.906 0.116,3.817 0.262,5.718c0.088,1.156 0.327,2.303 0.752,3.398c0.393,1.014 0.939,1.923 1.763,2.645c0.17,0.15 0.376,0.261 0.552,0.381M30.212,46.12c0.412,-0.543 0.782,-1.021 1.141,-1.508c0.23,-0.311 0.207,-0.688 -0.017,-1.041c-0.232,-0.366 -0.555,-0.623 -0.924,-0.832c-0.695,-0.393 -1.445,-0.648 -2.215,-0.835c-0.904,-0.219 -1.816,-0.404 -2.728,-0.589c-1.413,-0.288 -2.836,-0.536 -4.242,-0.853c-1.776,-0.4 -3.517,-0.909 -5.044,-1.96c-0.177,-0.122 -0.342,-0.127 -0.355,-0.03c-0.017,0.131 -0.047,0.279 -0.008,0.399c0.568,1.729 1.568,3.157 3.02,4.261c0.859,0.652 1.803,1.154 2.804,1.547c1.57,0.615 3.201,0.984 4.878,1.143c1.2,0.113 2.404,0.195 3.69,0.298M46.068,66.698c1.208,0.008 2.746,-0.131 4.172,-0.397c3.623,-0.677 6.813,-2.241 9.543,-4.719c1.786,-1.622 3.194,-3.527 4.144,-5.754c0.686,-1.609 1.035,-3.281 1.027,-5.04c-0.008,-1.842 -0.563,-3.488 -1.589,-4.992c-0.663,-0.973 -1.48,-1.803 -2.393,-2.542c-1.278,-1.037 -2.691,-1.848 -4.194,-2.51c-4.121,-1.815 -8.44,-2.292 -12.886,-1.919c-0.093,0.008 -0.186,0.018 -0.278,0.034c-3.09,0.526 -5.927,1.656 -8.433,3.56c-2.428,1.846 -4.295,4.142 -5.489,6.961c-0.814,1.922 -1.174,3.923 -1.052,6.016c0.133,2.288 1.008,4.246 2.527,5.936c0.69,0.767 1.466,1.439 2.318,2.021c2.074,1.417 4.377,2.286 6.813,2.828c0.222,0.05 0.467,0.047 0.694,0.018c2.976,-0.389 5.87,-1.101 8.652,-2.239c1.776,-0.727 3.483,-1.587 5.061,-2.691c0.884,-0.618 1.706,-1.305 2.432,-2.104c0.601,-0.662 1.11,-1.386 1.428,-2.229c0.301,-0.801 0.416,-1.615 0.232,-2.472c-0.141,-0.651 -0.391,-1.246 -0.734,-1.806c-1.045,-1.707 -2.554,-2.83 -4.441,-3.445c-1.07,-0.348 -2.174,-0.543 -3.302,-0.577c-1.077,-0.032 -2.143,0.045 -3.21,0.206c-2.425,0.366 -4.722,1.104 -6.892,2.24c-0.788,0.412 -1.54,0.882 -2.229,1.448c-0.398,0.327 -0.764,0.685 -1.063,1.108c-0.318,0.449 -0.398,0.942 -0.283,1.467c0.186,0.842 0.595,1.567 1.188,2.19c0.722,0.758 1.589,1.303 2.568,1.655c2.337,0.839 4.595,0.592 6.76,-0.574c0.365,-0.197 0.689,-0.48 0.999,-0.759c0.168,-0.151 0.292,-0.365 0.395,-0.571c0.232,-0.465 0.111,-1.056 -0.263,-1.42c-0.31,-0.302 -0.671,-0.506 -1.102,-0.566c-0.564,-0.079 -1.117,-0.051 -1.645,0.196c-0.294,0.137 -0.589,0.28 -0.898,0.374c-0.103,0.031 -0.265,-0.062 -0.373,-0.136c-0.115,-0.078 -0.078,-0.393 0.036,-0.505c0.066,-0.065 0.124,-0.141 0.199,-0.194c0.978,-0.679 2.046,-0.877 3.199,-0.575c0.606,0.158 1.117,0.484 1.487,0.99c0.435,0.598 0.595,1.252 0.343,1.983c-0.14,0.407 -0.337,0.777 -0.641,1.071c-0.301,0.29 -0.62,0.573 -0.971,0.797c-2.604,1.664 -6.213,1.874 -8.965,0.413c-0.876,-0.464 -1.648,-1.06 -2.284,-1.825c-0.515,-0.62 -0.881,-1.317 -1.094,-2.095c-0.275,-1.01 -0.145,-1.952 0.521,-2.775c0.322,-0.398 0.679,-0.773 1.058,-1.116c0.73,-0.661 1.552,-1.197 2.406,-1.685c2.249,-1.285 4.65,-2.171 7.184,-2.688c1.514,-0.309 3.049,-0.443 4.598,-0.349c1.553,0.094 3.05,0.422 4.461,1.093c1.967,0.935 3.456,2.372 4.43,4.318c0.99,1.977 0.941,3.958 -0.066,5.921c-0.344,0.67 -0.779,1.275 -1.276,1.837c-0.589,0.667 -1.247,1.261 -1.959,1.796c-0.973,0.732 -2.011,1.358 -3.097,1.908c-1.546,0.783 -3.153,1.411 -4.815,1.895c-0.805,0.234 -1.626,0.418 -2.438,0.632c-0.209,0.056 -0.432,0.109 -0.52,0.357M20.848,73.541c-0.136,0.017 -0.291,0 -0.407,0.057c-1.183,0.584 -2.256,1.322 -3.151,2.301c-0.838,0.917 -1.418,1.968 -1.632,3.202c-0.193,1.111 0.038,2.144 0.664,3.071c0.641,0.951 1.558,1.451 2.708,1.511c0.809,0.042 1.584,-0.09 2.311,-0.455c0.884,-0.444 1.474,-1.133 1.706,-2.104c0.066,-0.274 0.057,-0.554 -0.047,-0.827c-0.098,-0.257 -0.419,-0.419 -0.683,-0.358c-0.33,0.076 -0.588,0.271 -0.859,0.454c-0.148,0.1 -0.325,0.167 -0.498,0.213c-0.07,0.018 -0.186,-0.04 -0.242,-0.1c-0.053,-0.058 -0.064,-0.162 -0.078,-0.248c-0.006,-0.04 0.017,-0.092 0.041,-0.13c0.365,-0.577 0.889,-0.951 1.53,-1.157c0.619,-0.199 1.351,0.117 1.675,0.708c0.355,0.648 0.398,1.332 0.224,2.038c-0.245,0.992 -0.77,1.816 -1.592,2.407c-1.661,1.194 -3.487,1.539 -5.443,0.853c-1.093,-0.382 -1.938,-1.112 -2.56,-2.088c-0.929,-1.456 -1.143,-3.046 -0.813,-4.713c0.288,-1.456 0.991,-2.71 1.989,-3.802c0.958,-1.049 2.101,-1.849 3.367,-2.479c0.543,-0.27 1.096,-0.522 1.645,-0.782c1.141,-0.541 2.252,-1.136 3.32,-1.809c0.872,-0.549 1.694,-1.164 2.444,-1.873c1.331,-1.257 2.199,-2.773 2.557,-4.571c0.099,-0.502 0.162,-1.011 0.23,-1.519c0.023,-0.174 -0.13,-0.359 -0.286,-0.438c-0.343,-0.174 -0.713,-0.209 -1.085,-0.253c-1.402,-0.166 -2.806,-0.109 -4.196,0.073c-2.085,0.274 -4.141,0.71 -6.152,1.339c-1.299,0.405 -2.534,0.954 -3.689,1.677c-0.676,0.423 -1.296,0.917 -1.872,1.468c-0.134,0.128 -0.283,0.241 -0.427,0.359c-0.112,0.092 -0.316,0.091 -0.367,-0.022c-0.052,-0.117 -0.095,-0.271 -0.062,-0.385c0.051,-0.174 0.161,-0.335 0.264,-0.489c0.603,-0.899 1.339,-1.682 2.169,-2.372c2.018,-1.677 4.326,-2.776 6.902,-3.236c2.374,-0.424 4.746,-0.322 7.073,0.379c0.261,0.079 0.523,0.226 0.841,0.021c-0.529,-2.028 -1.74,-3.569 -3.464,-4.723c-1.497,-1.002 -3.15,-1.099 -4.847,-0.682c-0.815,0.201 -1.605,0.5 -2.408,0.746c-1.071,0.327 -2.14,0.666 -3.22,0.962c-0.817,0.224 -1.661,0.254 -2.504,0.176c-1.291,-0.119 -2.29,-0.74 -3.024,-1.797c-0.051,-0.073 -0.092,-0.178 -0.082,-0.262c0.015,-0.128 0.051,-0.272 0.127,-0.373c0.086,-0.114 0.25,-0.145 0.376,-0.067c0.197,0.119 0.384,0.259 0.558,0.409c0.915,0.789 1.953,1.044 3.134,0.783c0.731,-0.163 1.448,-0.363 2.151,-0.623c0.92,-0.339 1.839,-0.681 2.77,-0.988c0.664,-0.218 1.339,-0.414 2.022,-0.56c2.422,-0.518 4.523,0.151 6.343,1.788c0.31,0.278 0.606,0.572 0.922,0.843c0.036,0.031 0.213,-0.02 0.234,-0.07c0.051,-0.125 0.062,-0.271 0.067,-0.41c0.041,-0.933 0.073,-1.867 0.302,-2.781c0.06,-0.242 -0.019,-0.462 -0.202,-0.635c-1.122,-1.063 -2.43,-1.516 -3.979,-1.255c-0.65,0.11 -1.277,0.28 -1.884,0.526c-0.778,0.317 -1.544,0.662 -2.317,0.992c-0.902,0.384 -1.802,0.773 -2.709,1.143c-0.739,0.302 -1.516,0.456 -2.3,0.6c-0.942,0.173 -1.863,0.11 -2.777,-0.123c-0.786,-0.2 -1.474,-0.58 -2.01,-1.208c-0.446,-0.523 -0.65,-1.121 -0.598,-1.81c0.049,-0.655 0.355,-1.157 0.896,-1.507c0.699,-0.452 1.467,-0.579 2.282,-0.408c0.044,0.009 0.083,0.039 0.126,0.056c0.145,0.057 0.311,0.344 0.239,0.454c-0.072,0.11 -0.17,0.239 -0.284,0.278c-0.217,0.075 -0.455,0.087 -0.683,0.132c-0.229,0.046 -0.466,0.074 -0.681,0.157c-0.657,0.253 -1.043,0.968 -0.424,1.697c0.378,0.445 0.876,0.688 1.447,0.789c0.936,0.166 1.87,0.118 2.776,-0.143c0.761,-0.22 1.508,-0.497 2.245,-0.79c0.954,-0.379 1.888,-0.81 2.84,-1.196c0.778,-0.317 1.573,-0.587 2.395,-0.781c0.597,-0.141 1.194,-0.199 1.803,-0.213c1.266,-0.029 2.39,0.35 3.39,1.119c0.184,0.142 0.368,0.287 0.567,0.405c0.054,0.032 0.166,-0.019 0.245,-0.049c0.038,-0.015 0.071,-0.064 0.09,-0.105c0.38,-0.852 0.763,-1.702 1.13,-2.559c0.048,-0.111 0.007,-0.26 0.007,-0.397c-0.603,-0.091 -1.16,0.012 -1.718,0.032c-1.687,0.061 -3.362,-0.027 -5.016,-0.392c-1.1,-0.243 -2.159,-0.603 -3.153,-1.137c-2.477,-1.328 -4.091,-3.354 -4.849,-6.058c-0.177,-0.63 -0.317,-1.269 -0.349,-1.927c-0.075,-1.539 -0.167,-3.077 -0.231,-4.617c-0.03,-0.749 0.034,-1.499 0.289,-2.212c0.14,-0.393 0.305,-0.786 0.522,-1.141c0.773,-1.266 2.257,-1.537 3.294,-1.257c1.912,0.515 2.734,2.167 2.574,3.527c-0.022,0.181 -0.099,0.356 -0.163,0.529c-0.057,0.154 -0.333,0.309 -0.455,0.239c-0.113,-0.065 -0.258,-0.173 -0.278,-0.283c-0.066,-0.365 -0.062,-0.741 -0.122,-1.108c-0.191,-1.171 -1.44,-1.999 -2.615,-1.764c-0.607,0.122 -0.999,0.502 -1.245,1.031c-0.217,0.467 -0.358,0.97 -0.357,1.49c0.001,0.699 0.024,1.4 0.065,2.099c0.022,0.371 0.113,0.739 0.151,1.11c0.072,0.691 0.417,1.227 0.916,1.682c0.454,0.414 0.984,0.709 1.534,0.969c0.89,0.42 1.822,0.732 2.771,0.976c1.538,0.394 3.086,0.745 4.625,1.136c0.995,0.253 1.984,0.532 2.967,0.825c0.446,0.133 0.879,0.315 1.308,0.498c0.917,0.392 1.734,0.916 2.278,1.788c0.046,0.073 0.142,0.115 0.214,0.171c0.043,0.005 0.103,0.032 0.125,0.013c0.57,-0.479 1.136,-0.962 1.717,-1.457c-0.071,-0.155 -0.093,-0.316 -0.185,-0.388c-1.707,-1.334 -2.58,-3.163 -3.08,-5.204c-0.334,-1.363 -0.547,-2.751 -0.585,-4.156c-0.039,-1.448 -0.046,-2.896 -0.066,-4.344c-0.005,-0.328 -0.008,-0.655 -0.007,-0.982c0.001,-0.243 -0.08,-0.456 -0.227,-0.645c-0.229,-0.296 -0.46,-0.589 -0.687,-0.886c-2.173,-2.839 -3.875,-5.942 -5.201,-9.256c-0.086,-0.214 -0.138,-0.442 -0.195,-0.666c-0.034,-0.134 0.163,-0.409 0.317,-0.409c0.125,0 0.292,0.037 0.369,0.122c0.153,0.169 0.271,0.375 0.379,0.58c0.438,0.824 0.853,1.662 1.301,2.481c0.92,1.684 1.974,3.282 3.133,4.811c0.139,0.183 0.305,0.346 0.465,0.512c0.026,0.026 0.085,0.026 0.128,0.027c0.114,0.002 0.172,-0.06 0.177,-0.177c0.002,-0.046 0.018,-0.092 0.014,-0.138c-0.104,-1.349 -0.137,-2.708 -0.449,-4.034c-0.129,-0.545 -0.288,-1.082 -0.429,-1.624c-0.047,-0.179 -0.088,-0.36 -0.123,-0.542c-0.03,-0.159 0.135,-0.402 0.288,-0.427c0.184,-0.03 0.394,0.05 0.481,0.2c0.094,0.161 0.201,0.318 0.268,0.491c0.152,0.391 0.291,0.788 0.422,1.187c0.381,1.158 0.607,2.352 0.747,3.559c0.124,1.066 0.207,2.139 0.278,3.21c0.027,0.402 0.178,0.713 0.447,0.993c0.679,0.708 1.349,1.426 2.03,2.132c0.746,0.773 1.521,1.52 2.247,2.312c0.694,0.757 1.378,1.529 1.999,2.344c1.095,1.437 1.813,3.045 2.002,4.863c0.014,0.135 0.048,0.276 0.107,0.397c0.033,0.07 0.136,0.154 0.205,0.153c0.798,-0.019 1.55,-0.273 2.306,-0.494c0.047,-0.013 0.085,-0.159 0.074,-0.236c-0.012,-0.084 -0.073,-0.172 -0.134,-0.238c-0.716,-0.782 -1.098,-1.734 -1.347,-2.738c-0.168,-0.678 -0.295,-1.373 -0.361,-2.068c-0.146,-1.535 -0.266,-3.073 -0.267,-4.617c0,-0.701 -0.012,-1.403 -0.057,-2.102c-0.023,-0.368 -0.103,-0.738 -0.201,-1.096c-0.204,-0.739 -1.045,-1.076 -1.674,-0.937c-0.224,0.05 -0.446,0.142 -0.65,0.251c-0.406,0.216 -0.598,0.58 -0.606,1.033c-0.003,0.185 0.037,0.371 0.058,0.556c0.02,0.185 0.057,0.369 0.055,0.554c-0.001,0.137 -0.074,0.254 -0.219,0.315c-0.149,0.062 -0.272,0 -0.397,-0.057c-0.041,-0.019 -0.08,-0.054 -0.106,-0.09c-0.7,-0.991 -0.628,-2.262 0.218,-3.069c0.841,-0.804 1.845,-1.059 2.978,-0.737c1.044,0.297 1.663,1.02 1.928,2.033c0.19,0.721 0.294,1.465 0.294,2.218c0,1.028 0.003,2.056 0.008,3.084c0.005,0.841 0.021,1.682 0.022,2.523c0.002,0.8 0.141,1.582 0.296,2.361c0.072,0.364 0.195,0.721 0.331,1.068c0.285,0.731 0.813,1.246 1.515,1.576c0.161,0.076 0.361,0.104 0.541,0.099c0.56,-0.015 1.119,-0.079 1.68,-0.084c1.074,-0.011 2.148,0.006 3.223,0.011c0.185,0.001 0.37,0 0.537,0c0.061,-0.147 0.025,-0.204 -0.082,-0.242c-1.675,-0.586 -2.844,-1.764 -3.716,-3.254c-1.837,-3.138 -2.503,-6.502 -1.907,-10.109c0.307,-1.858 0.898,-3.622 1.645,-5.341c0.672,-1.543 1.459,-3.029 2.291,-4.491c0.715,-1.259 1.43,-2.519 2.139,-3.781c0.825,-1.468 1.574,-2.972 2.095,-4.579c0.042,-0.133 0.082,-0.281 0.171,-0.379c0.087,-0.097 0.227,-0.162 0.357,-0.2c0.122,-0.035 0.374,0.226 0.361,0.365c-0.026,0.276 -0.036,0.559 -0.109,0.824c-0.286,1.038 -0.677,2.04 -1.151,3.005c-0.616,1.258 -1.262,2.502 -1.894,3.753c-0.778,1.542 -1.587,3.07 -2.325,4.632c-0.859,1.82 -1.539,3.706 -1.922,5.693c-0.654,3.393 -0.143,6.597 1.529,9.617c0.409,0.74 0.905,1.418 1.551,1.973c0.466,0.402 0.982,0.722 1.596,0.834c0.991,0.18 1.848,-0.105 2.568,-0.802c0.697,-0.672 1.094,-1.51 1.271,-2.447c0.123,-0.646 0.137,-1.304 0.023,-1.954c-0.039,-0.223 -0.138,-0.442 -0.241,-0.647c-0.112,-0.224 -0.327,-0.343 -0.569,-0.351c-0.23,-0.007 -0.481,-0.011 -0.69,0.069c-1.318,0.509 -2.312,1.381 -2.896,2.687c-0.018,0.042 -0.018,0.092 -0.031,0.136c-0.045,0.15 0.074,0.413 0.211,0.478c0.301,0.144 0.619,0.204 0.95,0.2c0.285,-0.003 0.529,-0.236 0.541,-0.526c0.01,-0.231 -0.018,-0.468 0.034,-0.687c0.025,-0.102 0.192,-0.191 0.314,-0.239c0.064,-0.025 0.192,0.027 0.251,0.084c0.413,0.399 0.483,0.891 0.322,1.417c-0.15,0.489 -0.513,0.781 -1.002,0.879c-0.508,0.1 -1.025,0.082 -1.531,-0.039c-0.178,-0.043 -0.351,-0.128 -0.513,-0.217c-0.473,-0.259 -0.779,-0.905 -0.669,-1.434c0.058,-0.272 0.123,-0.555 0.249,-0.8c0.785,-1.511 1.954,-2.599 3.579,-3.166c0.132,-0.046 0.268,-0.085 0.405,-0.112c0.911,-0.179 1.815,0.229 2.239,1.064c0.188,0.369 0.339,0.781 0.394,1.188c0.174,1.269 0.077,2.518 -0.459,3.706c-0.689,1.53 -1.752,2.63 -3.45,3.005c-0.132,0.029 -0.255,0.106 -0.375,0.173c-0.03,0.016 -0.044,0.079 -0.045,0.122c-0.001,0.031 0.028,0.086 0.052,0.091c0.822,0.172 1.649,0.317 2.465,0.512c1.963,0.471 3.832,1.191 5.601,2.168c0.224,0.124 0.227,0.118 0.698,0.141c0.02,-0.46 -0.004,-0.926 0.068,-1.378c0.286,-1.803 1.207,-3.123 2.999,-3.699c1.017,-0.326 2.037,-0.268 2.992,0.239c0.848,0.45 1.351,1.133 1.294,2.144c-0.014,0.255 -0.141,0.444 -0.274,0.396c-0.148,-0.054 -0.212,-0.156 -0.231,-0.301c-0.011,-0.093 -0.023,-0.186 -0.038,-0.278c-0.097,-0.611 -0.471,-0.995 -1.014,-1.244c-1.336,-0.615 -2.905,0.032 -3.553,0.882c-0.695,0.91 -0.962,1.92 -0.65,3.032c0.505,1.804 1.619,3.012 3.484,3.47c0.55,0.135 1.1,0.196 1.663,0.207c1.244,0.023 2.269,-0.459 3.129,-1.332c0.529,-0.538 0.93,-1.168 1.28,-1.832c0.526,-0.995 0.901,-2.051 1.218,-3.128c0.132,-0.447 0.223,-0.907 0.356,-1.354c0.199,-0.672 0.406,-1.341 0.72,-1.972c0.252,-0.505 0.541,-0.982 0.923,-1.399c0.783,-0.854 1.746,-1.221 2.901,-1.038c0.317,0.05 0.629,0.132 0.945,0.192c0.035,0.006 0.098,-0.034 0.115,-0.069c0.013,-0.025 -0.02,-0.084 -0.046,-0.117c-0.274,-0.352 -0.661,-0.512 -1.078,-0.589c-0.796,-0.146 -1.575,-0.09 -2.341,0.207c-1.129,0.44 -2,1.186 -2.678,2.173c-0.591,0.86 -0.959,1.817 -1.162,2.833c-0.129,0.648 -0.337,1.266 -0.642,1.846c-0.726,1.384 -1.823,2.344 -3.314,2.849c-0.632,0.213 -1.275,0.262 -1.934,0.249c-1.111,-0.021 -2.479,-1.359 -2.331,-2.696c0.049,-0.443 0.224,-0.817 0.599,-1.061c0.806,-0.524 1.653,-0.604 2.524,-0.163c0.498,0.252 0.696,0.748 0.525,1.295c-0.03,0.095 -0.14,0.137 -0.225,0.065c-0.1,-0.084 -0.187,-0.202 -0.241,-0.323c-0.183,-0.412 -0.531,-0.52 -0.921,-0.464c-0.27,0.038 -0.533,0.161 -0.784,0.277c-0.253,0.117 -0.326,0.491 -0.181,0.729c0.323,0.529 0.802,0.789 1.408,0.75c1.549,-0.101 2.77,-0.783 3.571,-2.135c0.213,-0.359 0.37,-0.753 0.528,-1.141c0.158,-0.389 0.271,-0.796 0.429,-1.185c0.724,-1.79 1.893,-3.206 3.568,-4.188c0.949,-0.556 1.966,-0.849 3.075,-0.786c1.259,0.071 2.232,0.637 2.904,1.694c0.354,0.557 0.565,1.176 0.635,1.838c0.022,0.207 -0.075,0.394 -0.241,0.448c-0.212,0.069 -0.378,-0.028 -0.479,-0.186c-0.308,-0.488 -0.733,-0.845 -1.217,-1.138c-0.199,-0.12 -0.408,-0.24 -0.628,-0.307c-1.104,-0.336 -1.956,-0.17 -2.681,0.649c-0.306,0.345 -0.559,0.75 -0.777,1.159c-0.331,0.619 -0.534,1.29 -0.717,1.969c-0.242,0.902 -0.503,1.799 -0.787,2.688c-0.271,0.846 -0.635,1.656 -1.077,2.429c-0.374,0.653 -0.809,1.258 -1.344,1.786c-1.045,1.032 -2.294,1.577 -3.771,1.599c-0.555,0.008 -1.113,-0.08 -1.657,-0.012c-0.13,0.47 0.212,0.735 0.343,1.07c0.12,0.303 0.287,0.588 0.406,0.892c0.136,0.347 0.247,0.705 0.36,1.061c0.096,0.303 0.105,0.645 0.392,0.862c0.302,-0.061 0.456,-0.315 0.658,-0.501c0.812,-0.752 1.783,-1.186 2.849,-1.422c1.384,-0.307 2.778,-0.307 4.183,-0.159c2.049,0.217 4.049,0.69 6.064,1.089c0.733,0.145 1.47,0.277 2.211,0.364c0.868,0.102 1.666,-0.138 2.38,-0.644c0.309,-0.219 0.571,-0.49 0.726,-0.838c0.093,-0.209 0.158,-0.439 0.186,-0.666c0.063,-0.511 -0.256,-0.902 -0.745,-1.03c-0.363,-0.095 -0.75,0.065 -1.095,-0.129c-0.04,-0.023 -0.099,-0.063 -0.098,-0.094c0.003,-0.088 0.022,-0.179 0.053,-0.262c0.014,-0.036 0.068,-0.065 0.111,-0.082c0.544,-0.228 1.105,-0.212 1.638,-0.007c0.505,0.195 0.838,0.591 0.941,1.138c0.116,0.619 0.022,1.211 -0.309,1.753c-0.652,1.066 -1.622,1.661 -2.842,1.836c-1.028,0.147 -2.054,0.023 -3.067,-0.16c-1.517,-0.273 -3.026,-0.587 -4.54,-0.87c-1.472,-0.275 -2.951,-0.473 -4.456,-0.426c-0.708,0.022 -1.396,0.133 -2.067,0.34c-0.867,0.268 -1.605,0.744 -2.194,1.445c-0.371,0.443 -0.634,0.9 -0.548,1.526c0.056,0.411 -0.023,0.839 -0.021,1.258c0,0.059 0.107,0.125 0.176,0.172c0.027,0.018 0.098,0.006 0.127,-0.018c0.181,-0.145 0.357,-0.298 0.533,-0.45c1.456,-1.25 3.144,-1.982 5.027,-2.313c1.812,-0.318 3.626,-0.291 5.447,-0.123c1.814,0.168 3.618,0.439 5.441,0.512c0.843,0.033 1.681,0.025 2.52,-0.05c1.238,-0.11 2.371,-0.497 3.38,-1.231c0.188,-0.137 0.38,-0.27 0.572,-0.402c0.094,-0.063 0.324,-0.001 0.368,0.1c0.059,0.134 0.061,0.271 -0.035,0.387c-0.618,0.737 -1.426,1.2 -2.301,1.549c-1.006,0.402 -2.065,0.593 -3.143,0.646c-1.355,0.067 -2.708,0.024 -4.06,-0.102c-1.489,-0.139 -2.98,-0.253 -4.472,-0.349c-1.356,-0.087 -2.71,-0.019 -4.05,0.22c-2.245,0.4 -4.125,1.445 -5.603,3.193c-0.182,0.216 -0.335,0.446 -0.325,0.75c0.003,0.113 0.148,0.279 0.261,0.26c0.183,-0.032 0.369,-0.056 0.549,-0.103c1.416,-0.369 2.842,-0.474 4.305,-0.302c1.492,0.174 2.945,0.489 4.372,0.95c0.977,0.316 1.957,0.623 2.933,0.944c0.801,0.263 1.618,0.454 2.445,0.606c0.839,0.154 1.669,0.171 2.495,-0.085c0.221,-0.068 0.455,-0.102 0.685,-0.123c0.075,-0.007 0.166,0.064 0.236,0.117c0.081,0.063 0.041,0.297 -0.06,0.377c-0.146,0.114 -0.283,0.249 -0.445,0.333c-0.669,0.349 -1.379,0.581 -2.135,0.632c-1.168,0.078 -2.333,0.057 -3.494,-0.128c-2.125,-0.338 -4.213,-0.839 -6.293,-1.375c-1.089,-0.28 -2.191,-0.472 -3.303,-0.609c-0.606,-0.075 -1.214,-0.101 -1.816,0.012c-1.437,0.27 -1.249,0.029 -1.862,1.345c-0.174,0.373 -0.432,0.716 -0.483,1.116c0.231,0.218 0.471,0.161 0.69,0.164c1.034,0.01 1.899,0.441 2.677,1.075c0.695,0.565 1.277,1.234 1.74,2c0.266,0.44 0.505,0.895 0.753,1.345c0.271,0.491 0.531,0.987 0.808,1.475c0.419,0.737 0.919,1.406 1.633,1.894c0.11,0.075 0.206,0.189 0.271,0.306c0.037,0.068 0.01,0.179 -0.009,0.267c-0.007,0.031 -0.071,0.056 -0.114,0.073c-0.28,0.108 -0.555,0.039 -0.817,-0.058c-0.666,-0.246 -1.262,-0.62 -1.767,-1.113c-0.533,-0.522 -1.057,-1.06 -1.527,-1.638c-0.618,-0.761 -1.172,-1.573 -1.767,-2.353c-0.339,-0.445 -0.689,-0.884 -1.063,-1.3c-0.315,-0.35 -0.713,-0.603 -1.164,-0.754c-0.851,-0.284 -1.243,-0.153 -1.793,0.587c-0.056,0.075 -0.101,0.158 -0.152,0.236c-0.069,0.107 -0.027,0.295 0.083,0.367c0.077,0.051 0.15,0.11 0.232,0.151c1.096,0.552 2.047,1.307 2.94,2.134c1.063,0.983 2.097,1.998 3.146,2.997c0.812,0.774 1.605,1.57 2.448,2.307c0.702,0.614 1.448,1.182 2.208,1.723c0.647,0.462 1.364,0.803 2.132,1.04c1.201,0.37 2.306,0.2 3.327,-0.525c0.537,-0.382 1.01,-0.831 1.417,-1.35c0.289,-0.369 0.52,-0.773 0.687,-1.214c0.36,-0.947 0.217,-1.843 -0.291,-2.687c-0.526,-0.874 -1.3,-1.459 -2.264,-1.784c-0.218,-0.073 -0.455,-0.103 -0.686,-0.119c-0.547,-0.038 -1.011,0.13 -1.343,0.594c-0.107,0.15 -0.223,0.298 -0.359,0.421c-0.055,0.051 -0.185,0.066 -0.258,0.037c-0.07,-0.027 -0.152,-0.133 -0.152,-0.203c0.002,-0.181 0.005,-0.381 0.081,-0.538c0.308,-0.636 0.851,-0.981 1.53,-1.1c0.463,-0.082 0.931,-0.055 1.388,0.077c1.066,0.306 1.959,0.882 2.639,1.757c1.039,1.336 1.22,2.812 0.554,4.352c-0.613,1.418 -1.657,2.487 -3.006,3.221c-1.31,0.712 -2.69,0.671 -4.076,0.205c-0.758,-0.254 -1.476,-0.597 -2.134,-1.045c-0.732,-0.499 -1.452,-1.022 -2.14,-1.58c-1.346,-1.091 -2.552,-2.331 -3.744,-3.586c-0.901,-0.948 -1.796,-1.903 -2.72,-2.828c-0.461,-0.461 -0.973,-0.874 -1.482,-1.283c-0.215,-0.172 -0.474,-0.3 -0.729,-0.407c-0.111,-0.046 -0.311,-0.041 -0.392,0.03c-0.313,0.274 -0.601,0.579 -0.881,0.887c-0.041,0.046 -0.021,0.192 0.022,0.258c0.074,0.115 0.18,0.214 0.286,0.302c1.21,1.002 1.824,2.347 2.174,3.83c0.193,0.818 0.319,1.649 0.339,2.496c0.041,1.777 0.019,3.548 -0.215,5.316c-0.209,1.574 -0.357,3.156 -0.524,4.735c-0.109,1.029 -0.076,2.052 0.132,3.069c0.105,0.513 0.292,0.984 0.609,1.4c0.267,0.351 0.61,0.589 1.062,0.597c1.494,0.025 2.873,-0.359 4.053,-1.292c1.376,-1.088 1.743,-2.816 1.225,-4.435c-0.07,-0.219 -0.193,-0.426 -0.322,-0.619c-0.324,-0.487 -0.717,-0.451 -1.023,-0.058c-0.256,0.329 -0.514,0.674 -0.688,1.05c-0.297,0.644 -0.469,1.323 -0.225,2.038c0.03,0.088 0.041,0.182 0.056,0.274c0.023,0.132 -0.087,0.311 -0.193,0.316c-0.163,0.008 -0.257,-0.098 -0.323,-0.221c-0.353,-0.652 -0.356,-1.356 -0.217,-2.05c0.168,-0.838 0.556,-1.585 1.135,-2.221c0.122,-0.134 0.28,-0.247 0.441,-0.336c0.349,-0.193 0.71,-0.187 1.078,-0.029c0.45,0.194 0.769,0.53 1.008,0.939c0.608,1.045 0.846,2.169 0.647,3.369c-0.259,1.561 -1.069,2.769 -2.381,3.644c-1.112,0.743 -2.356,1.138 -3.668,1.286c-1.27,0.144 -2.399,-0.249 -3.368,-1.086c-0.572,-0.495 -1.016,-1.093 -1.386,-1.749c-0.485,-0.859 -0.837,-1.774 -1.11,-2.718c-0.377,-1.302 -0.67,-2.625 -0.86,-3.967c-0.296,-2.081 -0.565,-4.166 -0.854,-6.247c-0.185,-1.343 -0.406,-2.679 -0.835,-3.97c-0.071,-0.217 -0.189,-0.422 -0.309,-0.617c-0.036,-0.058 -0.169,-0.109 -0.234,-0.088c-0.264,0.085 -0.529,0.179 -0.776,0.305c-0.454,0.232 -0.967,0.353 -1.376,0.713c0.038,0.13 0.05,0.275 0.117,0.388c1.012,1.7 1.304,3.586 1.39,5.513c0.049,1.119 0.003,2.243 0.008,3.364c0.006,1.495 -0.024,2.992 0.039,4.484c0.109,2.606 0.763,5.071 2.079,7.342c0.117,0.202 0.232,0.407 0.332,0.617c0.158,0.331 0.036,0.768 -0.27,1.004c-0.234,0.182 -0.687,0.228 -0.931,0.069c-0.233,-0.151 -0.462,-0.317 -0.671,-0.501c-1.092,-0.971 -1.985,-2.105 -2.72,-3.365c-1.07,-1.831 -1.766,-3.809 -2.286,-5.853c-0.496,-1.949 -0.815,-3.931 -1.138,-5.914c-0.225,-1.382 -0.434,-2.768 -0.798,-4.124c-0.109,-0.406 -0.222,-0.811 -0.352,-1.209c-0.143,-0.436 -0.362,-0.545 -0.875,-0.466c-0.091,0.014 -0.202,0.019 -0.266,0.073c-0.098,0.084 -0.23,0.205 -0.232,0.312c-0.006,0.324 0.018,0.654 0.074,0.973c0.431,2.463 0.052,4.836 -0.78,7.16c-0.379,1.058 -0.856,2.072 -1.39,3.059c-0.511,0.945 -1.043,1.879 -1.555,2.823c-0.649,1.194 -1.173,2.436 -1.496,3.764c-0.236,0.968 -0.273,1.939 -0.19,2.922c0.052,0.615 0.253,1.183 0.532,1.729c0.354,0.695 0.868,1.185 1.619,1.46c1.243,0.456 2.5,0.766 3.835,0.636c0.374,-0.036 0.743,-0.096 1.072,-0.295c0.118,-0.072 0.235,-0.149 0.346,-0.234c0.271,-0.207 0.356,-0.585 0.192,-0.875c-0.185,-0.325 -0.387,-0.639 -0.57,-0.964c-0.235,-0.413 -0.359,-0.866 -0.378,-1.337c-0.009,-0.228 0.034,-0.464 0.094,-0.687c0.09,-0.34 0.338,-0.561 0.663,-0.665c0.36,-0.115 0.731,-0.152 1.089,0.032c-0.137,0.337 -0.48,0.2 -0.714,0.314c-0.365,0.177 -0.55,0.501 -0.495,0.904c0.045,0.335 0.178,0.633 0.363,0.902c0.237,0.345 0.515,0.663 0.767,0.999c0.44,0.586 0.431,1.354 -0.007,1.954c-0.342,0.469 -0.804,0.774 -1.326,0.999c-0.834,0.358 -1.715,0.446 -2.608,0.418c-1.226,-0.037 -2.415,-0.29 -3.544,-0.763c-2.696,-1.128 -4.205,-3.179 -4.557,-6.063c-0.228,-1.874 -0.016,-3.73 0.405,-5.564c0.428,-1.87 1.03,-3.688 1.695,-5.484c0.536,-1.444 1.116,-2.872 1.661,-4.313c0.297,-0.786 0.572,-1.58 0.834,-2.378c0.101,-0.308 0.156,-0.635 0.197,-0.958c0.084,-0.653 -0.1,-0.751 -0.652,-0.829c-0.461,-0.064 -0.929,-0.082 -1.395,-0.101c-0.07,-0.003 -0.168,0.085 -0.211,0.156c-0.046,0.074 -0.052,0.179 -0.056,0.271c-0.056,1.152 -0.485,2.177 -1.061,3.155c-0.547,0.93 -1.207,1.777 -1.912,2.59c-0.89,1.025 -1.861,1.969 -2.897,2.846c-0.928,0.784 -1.861,1.563 -2.786,2.35c-0.998,0.847 -1.991,1.699 -2.887,2.657c-0.125,0.133 -0.283,0.238 -0.435,0.342c-0.097,0.065 -0.184,0.033 -0.23,-0.059c-0.02,-0.04 -0.048,-0.085 -0.045,-0.125c0.005,-0.091 0.001,-0.199 0.047,-0.269c0.31,-0.466 0.602,-0.949 0.956,-1.38c0.801,-0.975 1.611,-1.943 2.458,-2.876c1.319,-1.454 2.719,-2.83 4.139,-4.186c0.878,-0.838 1.716,-1.719 2.55,-2.601c0.451,-0.476 0.813,-1.021 1.1,-1.616c0.166,-0.344 0.263,-0.696 0.287,-1.074c0.009,-0.154 -0.145,-0.402 -0.289,-0.438c-0.408,-0.102 -0.818,-0.198 -1.224,-0.304c-0.497,-0.131 -0.988,-0.284 -1.487,-0.401c-0.534,-0.124 -1.005,-0.51 -1.598,-0.386c-0.34,0.411 -0.342,0.955 -0.559,1.415c-0.259,0.549 -0.481,1.117 -0.757,1.656c-0.596,1.164 -1.204,2.323 -1.831,3.47c-1.097,2.009 -2.166,4.032 -3.154,6.097c-1.357,2.834 -2.42,5.77 -3.052,8.851c-0.188,0.914 -0.306,1.842 -0.464,2.762c-0.047,0.273 -0.11,0.545 -0.191,0.811c-0.016,0.051 -0.154,0.104 -0.221,0.089c-0.075,-0.016 -0.154,-0.097 -0.192,-0.171c-0.04,-0.078 -0.049,-0.181 -0.045,-0.272c0.059,-1.213 0.061,-2.433 0.195,-3.638c0.387,-3.459 1.301,-6.781 2.75,-9.951c0.741,-1.617 1.632,-3.152 2.602,-4.641c0.739,-1.135 1.518,-2.245 2.25,-3.385c0.529,-0.824 1.019,-1.675 1.508,-2.524c0.138,-0.24 0.238,-0.511 0.303,-0.78c0.026,-0.107 -0.054,-0.299 -0.147,-0.362c-0.223,-0.151 -0.461,-0.323 -0.813,-0.232c-0.075,0.25 -0.156,0.514 -0.234,0.779c-0.463,1.577 -1.38,2.845 -2.65,3.869c-0.694,0.559 -1.447,1.025 -2.247,1.418c-1.647,0.81 -3.388,1.326 -5.182,1.677c-0.321,0.063 -0.64,0.143 -0.963,0.183c-0.907,0.113 -1.695,0.506 -2.436,1.011c-0.896,0.61 -1.678,1.346 -2.295,2.239c-0.29,0.42 -0.55,0.871 -0.754,1.339c-0.448,1.028 -0.531,2.072 0.013,3.108c0.084,0.159 0.119,0.346 0.166,0.523c0.008,0.033 -0.026,0.101 -0.058,0.115c-0.076,0.035 -0.186,0.089 -0.241,0.06c-0.119,-0.065 -0.231,-0.164 -0.314,-0.272c-0.757,-0.985 -0.986,-2.101 -0.76,-3.308c0.173,-0.927 0.522,-1.791 1.02,-2.593c0.548,-0.881 1.223,-1.649 2.004,-2.329c0.206,-0.179 0.476,-0.306 0.541,-0.611c0.237,-0.034 0.474,-0.068 0.71,-0.102c0.083,-0.243 0.295,-0.355 0.502,-0.448c0.728,-0.326 1.503,-0.476 2.286,-0.605c1.562,-0.257 3.112,-0.568 4.61,-1.096c1.148,-0.405 2.238,-0.915 3.211,-1.658c1.065,-0.813 1.84,-1.836 2.289,-3.101c0.046,-0.13 0.096,-0.27 0.092,-0.405c-0.003,-0.131 -0.038,-0.291 -0.121,-0.382c-0.121,-0.134 -0.294,-0.223 -0.452,-0.32c-1.197,-0.732 -2.297,-1.586 -3.274,-2.596c-0.095,-0.099 -0.207,-0.192 -0.328,-0.25c-0.056,-0.027 -0.216,0.018 -0.225,0.057c-0.088,0.359 -0.162,0.723 -0.226,1.088c-0.322,1.842 -1.161,3.429 -2.406,4.803c-0.467,0.516 -0.983,0.992 -1.508,1.451c-0.913,0.799 -1.924,1.467 -2.96,2.095c-0.516,0.312 -1.032,0.625 -1.532,0.927c0.018,0.182 0.032,0.321 0.044,0.455c-0.378,-0.281 -0.462,-0.277 -0.759,0.031" style="fill:#1e1c1a;fill-rule:nonzero;"/></svg>